<svg xmlns="http://www.w3.org/2000/svg" xmlns:xlink="http://www.w3.org/1999/xlink" width="582" zoomAndPan="magnify" viewBox="0 0 436.5 305.999988" height="408" preserveAspectRatio="xMidYMid meet" version="1.0"><defs><g/><clipPath id="8afb6861d8"><path d="M 132.539062 130.039062 L 306.917969 130.039062 L 306.917969 222.3125 L 132.539062 222.3125 Z M 132.539062 130.039062 " clip-rule="nonzero"/></clipPath><clipPath id="87c59db30c"><path d="M 190.695312 135.058594 C 199.609375 132.027344 209.800781 130.039062 219.773438 130.039062 C 229.75 130.039062 239.351562 131.746094 248.195312 134.773438 C 248.382812 134.871094 248.570312 134.871094 248.761719 134.964844 C 281.980469 147.082031 306.449219 179.085938 306.917969 213.785156 L 306.917969 222.3125 L 132.539062 222.3125 L 132.539062 213.792969 C 133.007812 178.898438 157.101562 146.894531 190.695312 135.058594 " clip-rule="nonzero"/></clipPath><clipPath id="7baaa53e79"><path d="M 154.648438 172.8125 L 176.546875 172.8125 L 176.546875 220.5 L 154.648438 220.5 Z M 154.648438 172.8125 " clip-rule="nonzero"/></clipPath><clipPath id="d668b9399a"><path d="M 161.953125 173.601562 C 163.070312 173.125 164.351562 172.8125 165.605469 172.8125 C 166.855469 172.8125 168.0625 173.078125 169.171875 173.554688 C 169.195312 173.570312 169.21875 173.570312 169.242188 173.585938 C 173.414062 175.492188 176.488281 180.523438 176.546875 186.71875 L 176.546875 220.488281 L 154.648438 220.488281 L 154.648438 186.742188 C 154.710938 180.496094 157.734375 175.460938 161.953125 173.601562 " clip-rule="nonzero"/></clipPath><clipPath id="cd42d81f6c"><path d="M 178.242188 151.960938 L 197.007812 151.960938 L 197.007812 220.757812 L 178.242188 220.757812 Z M 178.242188 151.960938 " clip-rule="nonzero"/></clipPath><clipPath id="31e240907d"><path d="M 198.542969 176.746094 L 240.769531 176.746094 L 240.769531 220.535156 L 198.542969 220.535156 Z M 198.542969 176.746094 " clip-rule="nonzero"/></clipPath><clipPath id="ef37ad4c72"><path d="M 242.214844 162.542969 L 249.25 162.542969 L 249.25 220.359375 L 242.214844 220.359375 Z M 242.214844 162.542969 " clip-rule="nonzero"/></clipPath><clipPath id="5362862907"><path d="M 251.019531 172.074219 L 258.054688 172.074219 L 258.054688 220.511719 L 251.019531 220.511719 Z M 251.019531 172.074219 " clip-rule="nonzero"/></clipPath><clipPath id="721f9cb012"><path d="M 260.117188 185.378906 L 287.484375 185.378906 L 287.484375 220.554688 L 260.117188 220.554688 Z M 260.117188 185.378906 " clip-rule="nonzero"/></clipPath><clipPath id="c517702d42"><path d="M 260.117188 220.554688 L 260.117188 190.324219 L 273.800781 185.378906 L 287.484375 190.324219 L 287.484375 220.554688 L 260.117188 220.554688 " clip-rule="nonzero"/></clipPath><clipPath id="3a0c3dfb83"><path d="M 200.105469 179.472656 L 238.421875 179.472656 L 238.421875 183.382812 L 200.105469 183.382812 Z M 200.105469 179.472656 " clip-rule="nonzero"/></clipPath><clipPath id="9e4e2e02c3"><path d="M 202.042969 179.472656 L 236.484375 179.472656 C 237.554688 179.472656 238.421875 180.347656 238.421875 181.429688 C 238.421875 182.507812 237.554688 183.382812 236.484375 183.382812 L 202.042969 183.382812 C 200.972656 183.382812 200.105469 182.507812 200.105469 181.429688 C 200.105469 180.347656 200.972656 179.472656 202.042969 179.472656 " clip-rule="nonzero"/></clipPath><clipPath id="390a7dd97a"><path d="M 200.105469 187.632812 L 238.421875 187.632812 L 238.421875 191.539062 L 200.105469 191.539062 Z M 200.105469 187.632812 " clip-rule="nonzero"/></clipPath><clipPath id="4a28b0e275"><path d="M 202.042969 187.632812 L 236.484375 187.632812 C 237.554688 187.632812 238.421875 188.507812 238.421875 189.585938 C 238.421875 190.664062 237.554688 191.539062 236.484375 191.539062 L 202.042969 191.539062 C 200.972656 191.539062 200.105469 190.664062 200.105469 189.585938 C 200.105469 188.507812 200.972656 187.632812 202.042969 187.632812 " clip-rule="nonzero"/></clipPath><clipPath id="bb6399a6dd"><path d="M 200.105469 195.789062 L 238.421875 195.789062 L 238.421875 199.699219 L 200.105469 199.699219 Z M 200.105469 195.789062 " clip-rule="nonzero"/></clipPath><clipPath id="1426344ffa"><path d="M 202.042969 195.789062 L 236.484375 195.789062 C 237.554688 195.789062 238.421875 196.664062 238.421875 197.742188 C 238.421875 198.820312 237.554688 199.695312 236.484375 199.695312 L 202.042969 199.695312 C 200.972656 199.695312 200.105469 198.820312 200.105469 197.742188 C 200.105469 196.664062 200.972656 195.789062 202.042969 195.789062 " clip-rule="nonzero"/></clipPath><clipPath id="7c80a614d4"><path d="M 200.105469 203.945312 L 238.421875 203.945312 L 238.421875 207.855469 L 200.105469 207.855469 Z M 200.105469 203.945312 " clip-rule="nonzero"/></clipPath><clipPath id="f73a7217b5"><path d="M 202.042969 203.945312 L 236.484375 203.945312 C 237.554688 203.945312 238.421875 204.820312 238.421875 205.898438 C 238.421875 206.980469 237.554688 207.855469 236.484375 207.855469 L 202.042969 207.855469 C 200.972656 207.855469 200.105469 206.980469 200.105469 205.898438 C 200.105469 204.820312 200.972656 203.945312 202.042969 203.945312 " clip-rule="nonzero"/></clipPath><clipPath id="59279a64ab"><path d="M 200.273438 211.765625 L 238.589844 211.765625 L 238.589844 215.675781 L 200.273438 215.675781 Z M 200.273438 211.765625 " clip-rule="nonzero"/></clipPath><clipPath id="4e8f73ce82"><path d="M 202.210938 211.765625 L 236.652344 211.765625 C 237.722656 211.765625 238.589844 212.640625 238.589844 213.71875 C 238.589844 214.796875 237.722656 215.671875 236.652344 215.671875 L 202.210938 215.671875 C 201.140625 215.671875 200.273438 214.796875 200.273438 213.71875 C 200.273438 212.640625 201.140625 211.765625 202.210938 211.765625 " clip-rule="nonzero"/></clipPath><clipPath id="33fc1ebda4"><path d="M 181.710938 154.894531 L 185.613281 154.894531 L 185.613281 158.804688 L 181.710938 158.804688 Z M 181.710938 154.894531 " clip-rule="nonzero"/></clipPath><clipPath id="8b7206b9e9"><path d="M 189.914062 154.894531 L 193.816406 154.894531 L 193.816406 158.804688 L 189.914062 158.804688 Z M 189.914062 154.894531 " clip-rule="nonzero"/></clipPath><clipPath id="d1b0bbe195"><path d="M 181.710938 162.515625 L 185.613281 162.515625 L 185.613281 166.425781 L 181.710938 166.425781 Z M 181.710938 162.515625 " clip-rule="nonzero"/></clipPath><clipPath id="0d1f297976"><path d="M 181.710938 170.140625 L 185.613281 170.140625 L 185.613281 174.050781 L 181.710938 174.050781 Z M 181.710938 170.140625 " clip-rule="nonzero"/></clipPath><clipPath id="46c9b61c90"><path d="M 181.710938 177.761719 L 185.613281 177.761719 L 185.613281 181.671875 L 181.710938 181.671875 Z M 181.710938 177.761719 " clip-rule="nonzero"/></clipPath><clipPath id="80ea0d672e"><path d="M 181.710938 185.382812 L 185.613281 185.382812 L 185.613281 189.292969 L 181.710938 189.292969 Z M 181.710938 185.382812 " clip-rule="nonzero"/></clipPath><clipPath id="da9df41a6f"><path d="M 181.710938 193.003906 L 185.613281 193.003906 L 185.613281 196.914062 L 181.710938 196.914062 Z M 181.710938 193.003906 " clip-rule="nonzero"/></clipPath><clipPath id="5d40e99f77"><path d="M 181.710938 200.625 L 185.613281 200.625 L 185.613281 204.535156 L 181.710938 204.535156 Z M 181.710938 200.625 " clip-rule="nonzero"/></clipPath><clipPath id="6565ba6d86"><path d="M 181.710938 208.25 L 185.613281 208.25 L 185.613281 212.160156 L 181.710938 212.160156 Z M 181.710938 208.25 " clip-rule="nonzero"/></clipPath><clipPath id="ac01f7ec51"><path d="M 189.914062 162.515625 L 193.816406 162.515625 L 193.816406 166.425781 L 189.914062 166.425781 Z M 189.914062 162.515625 " clip-rule="nonzero"/></clipPath><clipPath id="c5b5890403"><path d="M 189.914062 170.140625 L 193.816406 170.140625 L 193.816406 174.050781 L 189.914062 174.050781 Z M 189.914062 170.140625 " clip-rule="nonzero"/></clipPath><clipPath id="6b9289167b"><path d="M 189.914062 177.761719 L 193.816406 177.761719 L 193.816406 181.671875 L 189.914062 181.671875 Z M 189.914062 177.761719 " clip-rule="nonzero"/></clipPath><clipPath id="5003953f97"><path d="M 189.914062 185.382812 L 193.816406 185.382812 L 193.816406 189.292969 L 189.914062 189.292969 Z M 189.914062 185.382812 " clip-rule="nonzero"/></clipPath><clipPath id="0dfe17933c"><path d="M 189.914062 193.003906 L 193.816406 193.003906 L 193.816406 196.914062 L 189.914062 196.914062 Z M 189.914062 193.003906 " clip-rule="nonzero"/></clipPath><clipPath id="38f54c5ce2"><path d="M 189.914062 200.625 L 193.816406 200.625 L 193.816406 204.535156 L 189.914062 204.535156 Z M 189.914062 200.625 " clip-rule="nonzero"/></clipPath><clipPath id="724c5f42d9"><path d="M 189.914062 208.25 L 193.816406 208.25 L 193.816406 212.160156 L 189.914062 212.160156 Z M 189.914062 208.25 " clip-rule="nonzero"/></clipPath><clipPath id="48b13dcca3"><path d="M 163.648438 176.265625 L 167.558594 176.265625 L 167.558594 180.175781 L 163.648438 180.175781 Z M 163.648438 176.265625 " clip-rule="nonzero"/></clipPath><clipPath id="39d822656a"><path d="M 165.601562 176.265625 C 164.523438 176.265625 163.648438 177.140625 163.648438 178.21875 C 163.648438 179.300781 164.523438 180.175781 165.601562 180.175781 C 166.683594 180.175781 167.558594 179.300781 167.558594 178.21875 C 167.558594 177.140625 166.683594 176.265625 165.601562 176.265625 " clip-rule="nonzero"/></clipPath><clipPath id="9ad82ecf3b"><path d="M 157.910156 182.679688 L 161.820312 182.679688 L 161.820312 186.589844 L 157.910156 186.589844 Z M 157.910156 182.679688 " clip-rule="nonzero"/></clipPath><clipPath id="706c09e540"><path d="M 159.863281 182.679688 C 158.785156 182.679688 157.910156 183.554688 157.910156 184.632812 C 157.910156 185.714844 158.785156 186.589844 159.863281 186.589844 C 160.945312 186.589844 161.820312 185.714844 161.820312 184.632812 C 161.820312 183.554688 160.945312 182.679688 159.863281 182.679688 " clip-rule="nonzero"/></clipPath><clipPath id="02c66a1d0a"><path d="M 170.421875 182.347656 L 174.332031 182.347656 L 174.332031 186.257812 L 170.421875 186.257812 Z M 170.421875 182.347656 " clip-rule="nonzero"/></clipPath><clipPath id="2a1afee7f8"><path d="M 172.375 182.347656 C 171.296875 182.347656 170.421875 183.222656 170.421875 184.304688 C 170.421875 185.382812 171.296875 186.257812 172.375 186.257812 C 173.453125 186.257812 174.332031 185.382812 174.332031 184.304688 C 174.332031 183.222656 173.453125 182.347656 172.375 182.347656 " clip-rule="nonzero"/></clipPath><clipPath id="f240517fb7"><path d="M 157.910156 189.09375 L 161.820312 189.09375 L 161.820312 193.003906 L 157.910156 193.003906 Z M 157.910156 189.09375 " clip-rule="nonzero"/></clipPath><clipPath id="b2ad68a2b9"><path d="M 159.863281 189.09375 C 158.785156 189.09375 157.910156 189.96875 157.910156 191.050781 C 157.910156 192.128906 158.785156 193.003906 159.863281 193.003906 C 160.945312 193.003906 161.820312 192.128906 161.820312 191.050781 C 161.820312 189.96875 160.945312 189.09375 159.863281 189.09375 " clip-rule="nonzero"/></clipPath><clipPath id="7f4a63396c"><path d="M 164.164062 182.679688 L 168.074219 182.679688 L 168.074219 186.589844 L 164.164062 186.589844 Z M 164.164062 182.679688 " clip-rule="nonzero"/></clipPath><clipPath id="515aec5521"><path d="M 166.121094 182.679688 C 165.039062 182.679688 164.164062 183.554688 164.164062 184.632812 C 164.164062 185.714844 165.039062 186.589844 166.121094 186.589844 C 167.199219 186.589844 168.074219 185.714844 168.074219 184.632812 C 168.074219 183.554688 167.199219 182.679688 166.121094 182.679688 " clip-rule="nonzero"/></clipPath><clipPath id="c980028b5f"><path d="M 164.164062 189.09375 L 168.074219 189.09375 L 168.074219 193.003906 L 164.164062 193.003906 Z M 164.164062 189.09375 " clip-rule="nonzero"/></clipPath><clipPath id="138b74ab14"><path d="M 166.121094 189.09375 C 165.039062 189.09375 164.164062 189.96875 164.164062 191.050781 C 164.164062 192.128906 165.039062 193.003906 166.121094 193.003906 C 167.199219 193.003906 168.074219 192.128906 168.074219 191.050781 C 168.074219 189.96875 167.199219 189.09375 166.121094 189.09375 " clip-rule="nonzero"/></clipPath><clipPath id="dab921cdab"><path d="M 170.421875 189.09375 L 174.332031 189.09375 L 174.332031 193.003906 L 170.421875 193.003906 Z M 170.421875 189.09375 " clip-rule="nonzero"/></clipPath><clipPath id="cfdb994897"><path d="M 172.375 189.09375 C 171.296875 189.09375 170.421875 189.96875 170.421875 191.050781 C 170.421875 192.128906 171.296875 193.003906 172.375 193.003906 C 173.453125 193.003906 174.332031 192.128906 174.332031 191.050781 C 174.332031 189.96875 173.453125 189.09375 172.375 189.09375 " clip-rule="nonzero"/></clipPath><clipPath id="a9b75abf82"><path d="M 157.910156 195.351562 L 161.820312 195.351562 L 161.820312 199.261719 L 157.910156 199.261719 Z M 157.910156 195.351562 " clip-rule="nonzero"/></clipPath><clipPath id="4d96ad80d8"><path d="M 159.863281 195.351562 C 158.785156 195.351562 157.910156 196.226562 157.910156 197.304688 C 157.910156 198.386719 158.785156 199.261719 159.863281 199.261719 C 160.945312 199.261719 161.820312 198.386719 161.820312 197.304688 C 161.820312 196.226562 160.945312 195.351562 159.863281 195.351562 " clip-rule="nonzero"/></clipPath><clipPath id="5c6d943123"><path d="M 164.164062 195.351562 L 168.074219 195.351562 L 168.074219 199.261719 L 164.164062 199.261719 Z M 164.164062 195.351562 " clip-rule="nonzero"/></clipPath><clipPath id="9e292c0a56"><path d="M 166.121094 195.351562 C 165.039062 195.351562 164.164062 196.226562 164.164062 197.304688 C 164.164062 198.386719 165.039062 199.261719 166.121094 199.261719 C 167.199219 199.261719 168.074219 198.386719 168.074219 197.304688 C 168.074219 196.226562 167.199219 195.351562 166.121094 195.351562 " clip-rule="nonzero"/></clipPath><clipPath id="9b9df303d5"><path d="M 170.421875 195.351562 L 174.332031 195.351562 L 174.332031 199.261719 L 170.421875 199.261719 Z M 170.421875 195.351562 " clip-rule="nonzero"/></clipPath><clipPath id="b11a80e6ef"><path d="M 172.375 195.351562 C 171.296875 195.351562 170.421875 196.226562 170.421875 197.304688 C 170.421875 198.386719 171.296875 199.261719 172.375 199.261719 C 173.453125 199.261719 174.332031 198.386719 174.332031 197.304688 C 174.332031 196.226562 173.453125 195.351562 172.375 195.351562 " clip-rule="nonzero"/></clipPath><clipPath id="3bfb55fa6f"><path d="M 157.910156 201.988281 L 161.820312 201.988281 L 161.820312 205.898438 L 157.910156 205.898438 Z M 157.910156 201.988281 " clip-rule="nonzero"/></clipPath><clipPath id="2961b08bae"><path d="M 159.863281 201.988281 C 158.785156 201.988281 157.910156 202.863281 157.910156 203.945312 C 157.910156 205.023438 158.785156 205.898438 159.863281 205.898438 C 160.945312 205.898438 161.820312 205.023438 161.820312 203.945312 C 161.820312 202.863281 160.945312 201.988281 159.863281 201.988281 " clip-rule="nonzero"/></clipPath><clipPath id="205e94f954"><path d="M 157.910156 208.4375 L 161.820312 208.4375 L 161.820312 212.347656 L 157.910156 212.347656 Z M 157.910156 208.4375 " clip-rule="nonzero"/></clipPath><clipPath id="9e4d99be88"><path d="M 159.863281 208.4375 C 158.785156 208.4375 157.910156 209.3125 157.910156 210.390625 C 157.910156 211.472656 158.785156 212.347656 159.863281 212.347656 C 160.945312 212.347656 161.820312 211.472656 161.820312 210.390625 C 161.820312 209.3125 160.945312 208.4375 159.863281 208.4375 " clip-rule="nonzero"/></clipPath><clipPath id="71c6e0de34"><path d="M 157.910156 214.449219 L 161.820312 214.449219 L 161.820312 218.359375 L 157.910156 218.359375 Z M 157.910156 214.449219 " clip-rule="nonzero"/></clipPath><clipPath id="33f31816b1"><path d="M 159.863281 214.449219 C 158.785156 214.449219 157.910156 215.324219 157.910156 216.402344 C 157.910156 217.484375 158.785156 218.359375 159.863281 218.359375 C 160.945312 218.359375 161.820312 217.484375 161.820312 216.402344 C 161.820312 215.324219 160.945312 214.449219 159.863281 214.449219 " clip-rule="nonzero"/></clipPath><clipPath id="34def8491a"><path d="M 164.164062 201.988281 L 168.074219 201.988281 L 168.074219 205.898438 L 164.164062 205.898438 Z M 164.164062 201.988281 " clip-rule="nonzero"/></clipPath><clipPath id="634da534dc"><path d="M 166.121094 201.988281 C 165.039062 201.988281 164.164062 202.863281 164.164062 203.945312 C 164.164062 205.023438 165.039062 205.898438 166.121094 205.898438 C 167.199219 205.898438 168.074219 205.023438 168.074219 203.945312 C 168.074219 202.863281 167.199219 201.988281 166.121094 201.988281 " clip-rule="nonzero"/></clipPath><clipPath id="67d3bbd23f"><path d="M 164.164062 208.246094 L 168.074219 208.246094 L 168.074219 212.15625 L 164.164062 212.15625 Z M 164.164062 208.246094 " clip-rule="nonzero"/></clipPath><clipPath id="22ef07a2c1"><path d="M 166.121094 208.246094 C 165.039062 208.246094 164.164062 209.121094 164.164062 210.199219 C 164.164062 211.28125 165.039062 212.15625 166.121094 212.15625 C 167.199219 212.15625 168.074219 211.28125 168.074219 210.199219 C 168.074219 209.121094 167.199219 208.246094 166.121094 208.246094 " clip-rule="nonzero"/></clipPath><clipPath id="ef86b7cd57"><path d="M 164.164062 214.5 L 168.074219 214.5 L 168.074219 218.410156 L 164.164062 218.410156 Z M 164.164062 214.5 " clip-rule="nonzero"/></clipPath><clipPath id="b2248ea260"><path d="M 166.121094 214.5 C 165.039062 214.5 164.164062 215.375 164.164062 216.457031 C 164.164062 217.535156 165.039062 218.410156 166.121094 218.410156 C 167.199219 218.410156 168.074219 217.535156 168.074219 216.457031 C 168.074219 215.375 167.199219 214.5 166.121094 214.5 " clip-rule="nonzero"/></clipPath><clipPath id="714c6c0f5c"><path d="M 139.945312 193.53125 L 168.878906 193.53125 L 168.878906 220.902344 L 139.945312 220.902344 Z M 139.945312 193.53125 " clip-rule="nonzero"/></clipPath><clipPath id="249ed4cbb9"><path d="M 170.421875 201.605469 L 174.332031 201.605469 L 174.332031 205.515625 L 170.421875 205.515625 Z M 170.421875 201.605469 " clip-rule="nonzero"/></clipPath><clipPath id="17c8470b16"><path d="M 172.375 201.605469 C 171.296875 201.605469 170.421875 202.480469 170.421875 203.5625 C 170.421875 204.640625 171.296875 205.515625 172.375 205.515625 C 173.453125 205.515625 174.332031 204.640625 174.332031 203.5625 C 174.332031 202.480469 173.453125 201.605469 172.375 201.605469 " clip-rule="nonzero"/></clipPath><clipPath id="6efe093348"><path d="M 170.421875 207.863281 L 174.332031 207.863281 L 174.332031 211.773438 L 170.421875 211.773438 Z M 170.421875 207.863281 " clip-rule="nonzero"/></clipPath><clipPath id="f2a6c8d6f6"><path d="M 172.375 207.863281 C 171.296875 207.863281 170.421875 208.738281 170.421875 209.816406 C 170.421875 210.898438 171.296875 211.773438 172.375 211.773438 C 173.453125 211.773438 174.332031 210.898438 174.332031 209.816406 C 174.332031 208.738281 173.453125 207.863281 172.375 207.863281 " clip-rule="nonzero"/></clipPath><clipPath id="4d27cc8157"><path d="M 170.421875 214.5 L 174.332031 214.5 L 174.332031 218.410156 L 170.421875 218.410156 Z M 170.421875 214.5 " clip-rule="nonzero"/></clipPath><clipPath id="b5ea76ea98"><path d="M 172.375 214.5 C 171.296875 214.5 170.421875 215.375 170.421875 216.457031 C 170.421875 217.535156 171.296875 218.410156 172.375 218.410156 C 173.453125 218.410156 174.332031 217.535156 174.332031 216.457031 C 174.332031 215.375 173.453125 214.5 172.375 214.5 " clip-rule="nonzero"/></clipPath><clipPath id="a5e6c15841"><path d="M 262.320312 191.441406 L 266.230469 191.441406 L 266.230469 200.042969 L 262.320312 200.042969 Z M 262.320312 191.441406 " clip-rule="nonzero"/></clipPath><clipPath id="8f74841cb0"><path d="M 264.277344 191.441406 C 265.355469 191.441406 266.230469 192.308594 266.230469 193.378906 L 266.230469 198.109375 C 266.230469 199.175781 265.355469 200.042969 264.277344 200.042969 C 263.195312 200.042969 262.320312 199.175781 262.320312 198.109375 L 262.320312 193.378906 C 262.320312 192.308594 263.195312 191.441406 264.277344 191.441406 " clip-rule="nonzero"/></clipPath><clipPath id="487d62e27f"><path d="M 271.707031 191.441406 L 275.613281 191.441406 L 275.613281 200.042969 L 271.707031 200.042969 Z M 271.707031 191.441406 " clip-rule="nonzero"/></clipPath><clipPath id="220061e6aa"><path d="M 273.660156 191.441406 C 274.738281 191.441406 275.613281 192.308594 275.613281 193.378906 L 275.613281 198.109375 C 275.613281 199.175781 274.738281 200.042969 273.660156 200.042969 C 272.582031 200.042969 271.707031 199.175781 271.707031 198.109375 L 271.707031 193.378906 C 271.707031 192.308594 272.582031 191.441406 273.660156 191.441406 " clip-rule="nonzero"/></clipPath><clipPath id="87bc30fd96"><path d="M 281.242188 190.949219 L 285.152344 190.949219 L 285.152344 199.550781 L 281.242188 199.550781 Z M 281.242188 190.949219 " clip-rule="nonzero"/></clipPath><clipPath id="b43a4876d2"><path d="M 283.195312 190.949219 C 284.277344 190.949219 285.152344 191.816406 285.152344 192.882812 L 285.152344 197.617188 C 285.152344 198.683594 284.277344 199.550781 283.195312 199.550781 C 282.117188 199.550781 281.242188 198.683594 281.242188 197.617188 L 281.242188 192.882812 C 281.242188 191.816406 282.117188 190.949219 283.195312 190.949219 " clip-rule="nonzero"/></clipPath><clipPath id="4d0e07baa0"><path d="M 267.523438 200.566406 L 271.433594 200.566406 L 271.433594 209.167969 L 267.523438 209.167969 Z M 267.523438 200.566406 " clip-rule="nonzero"/></clipPath><clipPath id="e829f0add5"><path d="M 269.476562 200.566406 C 270.558594 200.566406 271.433594 201.433594 271.433594 202.503906 L 271.433594 207.234375 C 271.433594 208.304688 270.558594 209.167969 269.476562 209.167969 C 268.398438 209.167969 267.523438 208.304688 267.523438 207.234375 L 267.523438 202.503906 C 267.523438 201.433594 268.398438 200.566406 269.476562 200.566406 " clip-rule="nonzero"/></clipPath><clipPath id="cab6cc62c1"><path d="M 276.789062 200.566406 L 280.699219 200.566406 L 280.699219 209.167969 L 276.789062 209.167969 Z M 276.789062 200.566406 " clip-rule="nonzero"/></clipPath><clipPath id="867285a9ed"><path d="M 278.742188 200.566406 C 279.820312 200.566406 280.695312 201.433594 280.695312 202.503906 L 280.695312 207.234375 C 280.695312 208.304688 279.820312 209.167969 278.742188 209.167969 C 277.664062 209.167969 276.789062 208.304688 276.789062 207.234375 L 276.789062 202.503906 C 276.789062 201.433594 277.664062 200.566406 278.742188 200.566406 " clip-rule="nonzero"/></clipPath><clipPath id="32698ae4db"><path d="M 262.050781 210.539062 L 265.960938 210.539062 L 265.960938 219.140625 L 262.050781 219.140625 Z M 262.050781 210.539062 " clip-rule="nonzero"/></clipPath><clipPath id="c6ddda2f1c"><path d="M 264.003906 210.539062 C 265.082031 210.539062 265.957031 211.40625 265.957031 212.472656 L 265.957031 217.207031 C 265.957031 218.273438 265.082031 219.140625 264.003906 219.140625 C 262.925781 219.140625 262.050781 218.273438 262.050781 217.207031 L 262.050781 212.472656 C 262.050781 211.40625 262.925781 210.539062 264.003906 210.539062 " clip-rule="nonzero"/></clipPath><clipPath id="bef2a1c5d5"><path d="M 271.707031 210.101562 L 275.613281 210.101562 L 275.613281 218.703125 L 271.707031 218.703125 Z M 271.707031 210.101562 " clip-rule="nonzero"/></clipPath><clipPath id="b60c9d92f9"><path d="M 273.660156 210.101562 C 274.738281 210.101562 275.613281 210.96875 275.613281 212.039062 L 275.613281 216.769531 C 275.613281 217.839844 274.738281 218.703125 273.660156 218.703125 C 272.582031 218.703125 271.707031 217.839844 271.707031 216.769531 L 271.707031 212.039062 C 271.707031 210.96875 272.582031 210.101562 273.660156 210.101562 " clip-rule="nonzero"/></clipPath><clipPath id="e3d8c4ee4b"><path d="M 281.363281 209.667969 L 285.269531 209.667969 L 285.269531 218.269531 L 281.363281 218.269531 Z M 281.363281 209.667969 " clip-rule="nonzero"/></clipPath><clipPath id="d97c51b69a"><path d="M 283.316406 209.667969 C 284.394531 209.667969 285.269531 210.535156 285.269531 211.601562 L 285.269531 216.335938 C 285.269531 217.402344 284.394531 218.269531 283.316406 218.269531 C 282.234375 218.269531 281.363281 217.402344 281.363281 216.335938 L 281.363281 211.601562 C 281.363281 210.535156 282.234375 209.667969 283.316406 209.667969 " clip-rule="nonzero"/></clipPath><clipPath id="8ba0f7623f"><path d="M 268.695312 189.792969 L 301.539062 189.792969 L 301.539062 220.289062 L 268.695312 220.289062 Z M 268.695312 189.792969 " clip-rule="nonzero"/></clipPath><clipPath id="bd2e3bb9f4"><path d="M 250.421875 203.128906 L 268.40625 203.128906 L 268.40625 220.335938 L 250.421875 220.335938 Z M 250.421875 203.128906 " clip-rule="nonzero"/></clipPath></defs><path stroke-linecap="butt" transform="matrix(0.780352, 0.00781211, -0.00782803, 0.781942, 326.380881, 217.074967)" fill="none" stroke-linejoin="miter" d="M -0.00244588 4.000522 L 92.193522 3.99861 " stroke="#ffffff" stroke-width="8" stroke-opacity="1" stroke-miterlimit="4"/><path stroke-linecap="butt" transform="matrix(0.781043, 0.00391482, -0.00391947, 0.781972, 37.692662, 215.631274)" fill="none" stroke-linejoin="miter" d="M -0.001549 3.998285 L 92.117869 4.001674 " stroke="#ffffff" stroke-width="8" stroke-opacity="1" stroke-miterlimit="4"/><path stroke-linecap="butt" transform="matrix(-0.000000000000000126, 0.78092, -0.781981, -0.000000000000000126, 221.154924, 37.718233)" fill="none" stroke-linejoin="miter" d="M 0.000662433 3.999558 L 92.13453 3.999558 " stroke="#ffffff" stroke-width="8" stroke-opacity="1" stroke-miterlimit="4"/><path stroke-linecap="butt" transform="matrix(-0.492919, 0.60365, -0.6057, -0.494593, 332.677945, 73.71827)" fill="none" stroke-linejoin="miter" d="M -0.000602053 4.002533 L 92.319009 3.998959 " stroke="#ffffff" stroke-width="8" stroke-opacity="1" stroke-miterlimit="4"/><path stroke-linecap="butt" transform="matrix(-0.756385, 0.191684, -0.192098, -0.758019, 398.837413, 156.501172)" fill="none" stroke-linejoin="miter" d="M -0.00171244 4.000022 L 94.206805 3.999549 " stroke="#ffffff" stroke-width="8" stroke-opacity="1" stroke-miterlimit="4"/><path stroke-linecap="butt" transform="matrix(0.492337, 0.604727, -0.606418, 0.493713, 109.875961, 67.814776)" fill="none" stroke-linejoin="miter" d="M -0.00143084 4.000606 L 95.281552 4.002491 " stroke="#ffffff" stroke-width="8" stroke-opacity="1" stroke-miterlimit="4"/><path stroke-linecap="butt" transform="matrix(0.737295, 0.254846, -0.255462, 0.739077, 47.666047, 143.80597)" fill="none" stroke-linejoin="miter" d="M 0.000167942 3.999188 L 97.245801 3.997268 " stroke="#ffffff" stroke-width="8" stroke-opacity="1" stroke-miterlimit="4"/><g clip-path="url(#8afb6861d8)"><g clip-path="url(#87c59db30c)"><path stroke-linecap="butt" transform="matrix(0.783189, 0, 0, 0.780534, 132.538161, 130.040545)" fill="none" stroke-linejoin="miter" d="M 74.256885 6.428991 C 85.638641 2.545434 98.65135 -0.00189917 111.384752 -0.00189917 C 124.123142 -0.00189917 136.38272 2.185104 147.674699 6.063656 C 147.914104 6.188771 148.15351 6.188771 148.397904 6.308881 C 190.812651 21.833099 222.055123 62.835653 222.653638 107.29137 L 222.653638 118.216376 L 0.00115123 118.216376 L 0.00115123 107.301379 C 0.599666 62.595433 31.363326 21.592879 74.256885 6.428991 " stroke="#ffffff" stroke-width="15.345631" stroke-opacity="1" stroke-miterlimit="4"/></g></g><g clip-path="url(#7baaa53e79)"><g clip-path="url(#d668b9399a)"><path stroke-linecap="butt" transform="matrix(0.781981, 0, 0, 0.780981, 154.650107, 172.810575)" fill="none" stroke-linejoin="miter" d="M 9.339119 1.012812 C 10.767781 0.402602 12.406247 0.00246476 14.009746 0.00246476 C 15.60825 0.00246476 17.151804 0.342582 18.570476 0.952792 C 18.600448 0.972799 18.63042 0.972799 18.660392 0.992806 C 23.995397 3.433645 27.926716 9.875862 28.001646 17.808592 L 28.001646 61.048471 L -0.00213529 61.048471 L -0.00213529 17.838602 C 0.0777899 9.84085 3.94417 3.393632 9.339119 1.012812 " stroke="#ffffff" stroke-width="7.672815" stroke-opacity="1" stroke-miterlimit="4"/></g></g><g clip-path="url(#cd42d81f6c)"><path stroke-linecap="butt" transform="matrix(0.783512, 0, 0, 0.784349, 178.24026, 151.962514)" fill="none" stroke-linejoin="miter" d="M 0.00245965 -0.00200953 L 23.953123 -0.00200953 L 23.953123 87.71007 L 0.00245965 87.71007 L 0.00245965 -0.00200953 " stroke="#ffffff" stroke-width="7.672815" stroke-opacity="1" stroke-miterlimit="4"/></g><g clip-path="url(#31e240907d)"><path stroke-linecap="butt" transform="matrix(0.784251, 0, 0, 0.779372, 198.541448, 176.746979)" fill="none" stroke-linejoin="miter" d="M 0.00193888 -0.0011354 L 53.845139 -0.0011354 L 53.845139 56.183939 L 0.00193888 56.183939 L 0.00193888 -0.0011354 " stroke="#ffffff" stroke-width="7.672815" stroke-opacity="1" stroke-miterlimit="4"/></g><g clip-path="url(#ef37ad4c72)"><path stroke-linecap="butt" transform="matrix(0.760847, 0, 0, 0.779677, 242.213857, 162.54183)" fill="none" stroke-linejoin="miter" d="M 0.00129627 0.00146043 L 9.247778 0.00146043 L 9.247778 74.155808 L 0.00129627 74.155808 L 0.00129627 0.00146043 " stroke="#ffffff" stroke-width="5.754611" stroke-opacity="1" stroke-miterlimit="4"/></g><g clip-path="url(#5362862907)"><path stroke-linecap="butt" transform="matrix(0.760847, 0, 0, 0.781587, 251.018381, 172.073724)" fill="none" stroke-linejoin="miter" d="M 0.00151134 0.000633082 L 9.247993 0.000633082 L 9.247993 61.973868 L 0.00151134 61.973868 L 0.00151134 0.000633082 " stroke="#ffffff" stroke-width="5.754611" stroke-opacity="1" stroke-miterlimit="4"/></g><g clip-path="url(#721f9cb012)"><g clip-path="url(#c517702d42)"><path stroke-linecap="butt" transform="matrix(-0.773692, -0.000000000000000095, 0.000000000000000095, -0.776856, 287.485525, 220.555317)" fill="none" stroke-linejoin="miter" d="M 35.373692 0.000810379 L 35.373692 38.914663 L 17.687589 45.280464 L 0.00148666 38.914663 L 0.00148666 0.000810379 L 35.373692 0.000810379 " stroke="#ffffff" stroke-width="7.672815" stroke-opacity="1" stroke-miterlimit="4"/></g></g><g clip-path="url(#3a0c3dfb83)"><g clip-path="url(#9e4e2e02c3)"><path stroke-linecap="butt" transform="matrix(0.775552, 0, 0, 0.781981, 200.105385, 179.473958)" fill="none" stroke-linejoin="miter" d="M 2.49833 -0.00166474 L 46.907252 -0.00166474 C 48.287318 -0.00166474 49.405474 1.117288 49.405474 2.500992 C 49.405474 3.879701 48.287318 4.998654 46.907252 4.998654 L 2.49833 4.998654 C 1.118263 4.998654 0.000107392 3.879701 0.000107392 2.500992 C 0.000107392 1.117288 1.118263 -0.00166474 2.49833 -0.00166474 " stroke="#ffffff" stroke-width="1.918204" stroke-opacity="1" stroke-miterlimit="4"/></g></g><g clip-path="url(#390a7dd97a)"><g clip-path="url(#4a28b0e275)"><path stroke-linecap="butt" transform="matrix(0.775552, 0, 0, 0.781981, 200.105385, 187.631044)" fill="none" stroke-linejoin="miter" d="M 2.49833 0.00226212 L 46.907252 0.00226212 C 48.287318 0.00226212 49.405474 1.121215 49.405474 2.499924 C 49.405474 3.878633 48.287318 4.997585 46.907252 4.997585 L 2.49833 4.997585 C 1.118263 4.997585 0.000107392 3.878633 0.000107392 2.499924 C 0.000107392 1.121215 1.118263 0.00226212 2.49833 0.00226212 " stroke="#ffffff" stroke-width="1.918204" stroke-opacity="1" stroke-miterlimit="4"/></g></g><g clip-path="url(#bb6399a6dd)"><g clip-path="url(#1426344ffa)"><path stroke-linecap="butt" transform="matrix(0.775552, 0, 0, 0.781981, 200.105385, 195.788117)" fill="none" stroke-linejoin="miter" d="M 2.49833 0.00120898 L 46.907252 0.00120898 C 48.287318 0.00120898 49.405474 1.120161 49.405474 2.498871 C 49.405474 3.87758 48.287318 4.996532 46.907252 4.996532 L 2.49833 4.996532 C 1.118263 4.996532 0.000107392 3.87758 0.000107392 2.498871 C 0.000107392 1.120161 1.118263 0.00120898 2.49833 0.00120898 " stroke="#ffffff" stroke-width="1.918204" stroke-opacity="1" stroke-miterlimit="4"/></g></g><g clip-path="url(#7c80a614d4)"><g clip-path="url(#f73a7217b5)"><path stroke-linecap="butt" transform="matrix(0.775552, 0, 0, 0.781981, 200.105385, 203.945188)" fill="none" stroke-linejoin="miter" d="M 2.49833 0.000158911 L 46.907252 0.000158911 C 48.287318 0.000158911 49.405474 1.119111 49.405474 2.49782 C 49.405474 3.881525 48.287318 5.000477 46.907252 5.000477 L 2.49833 5.000477 C 1.118263 5.000477 0.000107392 3.881525 0.000107392 2.49782 C 0.000107392 1.119111 1.118263 0.000158911 2.49833 0.000158911 " stroke="#ffffff" stroke-width="1.918204" stroke-opacity="1" stroke-miterlimit="4"/></g></g><g clip-path="url(#59279a64ab)"><g clip-path="url(#4e8f73ce82)"><path stroke-linecap="butt" transform="matrix(0.775552, 0, 0, 0.781981, 200.2728, 211.764999)" fill="none" stroke-linejoin="miter" d="M 2.499044 0.000800138 L 46.907966 0.000800138 C 48.288032 0.000800138 49.406188 1.119753 49.406188 2.498462 C 49.406188 3.877171 48.288032 4.996123 46.907966 4.996123 L 2.499044 4.996123 C 1.118978 4.996123 0.000821885 3.877171 0.000821885 2.498462 C 0.000821885 1.119753 1.118978 0.000800138 2.499044 0.000800138 " stroke="#ffffff" stroke-width="1.918204" stroke-opacity="1" stroke-miterlimit="4"/></g></g><g clip-path="url(#33fc1ebda4)"><path stroke-linecap="butt" transform="matrix(0.781981, 0, 0, 0.714954, 181.711714, 154.89536)" fill="none" stroke-linejoin="miter" d="M -0.000993152 -0.00115868 L 4.989335 -0.00115868 L 4.989335 5.46794 L -0.000993152 5.46794 L -0.000993152 -0.00115868 " stroke="#ffffff" stroke-width="1.918204" stroke-opacity="1" stroke-miterlimit="4"/></g><g clip-path="url(#8b7206b9e9)"><path stroke-linecap="butt" transform="matrix(0.781981, 0, 0, 0.714954, 189.915184, 154.89536)" fill="none" stroke-linejoin="miter" d="M -0.00143432 -0.00115868 L 4.988894 -0.00115868 L 4.988894 5.46794 L -0.00143432 5.46794 L -0.00143432 -0.00115868 " stroke="#ffffff" stroke-width="1.918204" stroke-opacity="1" stroke-miterlimit="4"/></g><g clip-path="url(#d1b0bbe195)"><path stroke-linecap="butt" transform="matrix(0.781981, 0, 0, 0.714954, 181.711714, 162.51722)" fill="none" stroke-linejoin="miter" d="M -0.000993152 -0.00223074 L 4.989335 -0.00223074 L 4.989335 5.466868 L -0.000993152 5.466868 L -0.000993152 -0.00223074 " stroke="#ffffff" stroke-width="1.918204" stroke-opacity="1" stroke-miterlimit="4"/></g><g clip-path="url(#0d1f297976)"><path stroke-linecap="butt" transform="matrix(0.781981, 0, 0, 0.714954, 181.711714, 170.139066)" fill="none" stroke-linejoin="miter" d="M -0.000993152 0.00218094 L 4.989335 0.00218094 L 4.989335 5.47128 L -0.000993152 5.47128 L -0.000993152 0.00218094 " stroke="#ffffff" stroke-width="1.918204" stroke-opacity="1" stroke-miterlimit="4"/></g><g clip-path="url(#46c9b61c90)"><path stroke-linecap="butt" transform="matrix(0.781981, 0, 0, 0.714954, 181.711714, 177.760912)" fill="none" stroke-linejoin="miter" d="M -0.000993152 0.00112899 L 4.989335 0.00112899 L 4.989335 5.470228 L -0.000993152 5.470228 L -0.000993152 0.00112899 " stroke="#ffffff" stroke-width="1.918204" stroke-opacity="1" stroke-miterlimit="4"/></g><g clip-path="url(#80ea0d672e)"><path stroke-linecap="butt" transform="matrix(0.781981, 0, 0, 0.714954, 181.711714, 185.382769)" fill="none" stroke-linejoin="miter" d="M -0.000993152 0.0000602801 L 4.989335 0.0000602801 L 4.989335 5.469159 L -0.000993152 5.469159 L -0.000993152 0.0000602801 " stroke="#ffffff" stroke-width="1.918204" stroke-opacity="1" stroke-miterlimit="4"/></g><g clip-path="url(#da9df41a6f)"><path stroke-linecap="butt" transform="matrix(0.781981, 0, 0, 0.714954, 181.711714, 193.004615)" fill="none" stroke-linejoin="miter" d="M -0.000993152 -0.000991669 L 4.989335 -0.000991669 L 4.989335 5.468107 L -0.000993152 5.468107 L -0.000993152 -0.000991669 " stroke="#ffffff" stroke-width="1.918204" stroke-opacity="1" stroke-miterlimit="4"/></g><g clip-path="url(#5d40e99f77)"><path stroke-linecap="butt" transform="matrix(0.781981, 0, 0, 0.714954, 181.711714, 200.626461)" fill="none" stroke-linejoin="miter" d="M -0.000993152 -0.00204362 L 4.989335 -0.00204362 L 4.989335 5.467055 L -0.000993152 5.467055 L -0.000993152 -0.00204362 " stroke="#ffffff" stroke-width="1.918204" stroke-opacity="1" stroke-miterlimit="4"/></g><g clip-path="url(#6565ba6d86)"><path stroke-linecap="butt" transform="matrix(0.781981, 0, 0, 0.714954, 181.711714, 208.248321)" fill="none" stroke-linejoin="miter" d="M -0.000993152 0.00234795 L 4.989335 0.00234795 L 4.989335 5.471447 L -0.000993152 5.471447 L -0.000993152 0.00234795 " stroke="#ffffff" stroke-width="1.918204" stroke-opacity="1" stroke-miterlimit="4"/></g><g clip-path="url(#ac01f7ec51)"><path stroke-linecap="butt" transform="matrix(0.781981, 0, 0, 0.714954, 189.915184, 162.51722)" fill="none" stroke-linejoin="miter" d="M -0.00143432 -0.00223074 L 4.988894 -0.00223074 L 4.988894 5.466868 L -0.00143432 5.466868 L -0.00143432 -0.00223074 " stroke="#ffffff" stroke-width="1.918204" stroke-opacity="1" stroke-miterlimit="4"/></g><g clip-path="url(#c5b5890403)"><path stroke-linecap="butt" transform="matrix(0.781981, 0, 0, 0.714954, 189.915184, 170.139066)" fill="none" stroke-linejoin="miter" d="M -0.00143432 0.00218094 L 4.988894 0.00218094 L 4.988894 5.47128 L -0.00143432 5.47128 L -0.00143432 0.00218094 " stroke="#ffffff" stroke-width="1.918204" stroke-opacity="1" stroke-miterlimit="4"/></g><g clip-path="url(#6b9289167b)"><path stroke-linecap="butt" transform="matrix(0.781981, 0, 0, 0.714954, 189.915184, 177.760912)" fill="none" stroke-linejoin="miter" d="M -0.00143432 0.00112899 L 4.988894 0.00112899 L 4.988894 5.470228 L -0.00143432 5.470228 L -0.00143432 0.00112899 " stroke="#ffffff" stroke-width="1.918204" stroke-opacity="1" stroke-miterlimit="4"/></g><g clip-path="url(#5003953f97)"><path stroke-linecap="butt" transform="matrix(0.781981, 0, 0, 0.714954, 189.915184, 185.382769)" fill="none" stroke-linejoin="miter" d="M -0.00143432 0.0000602801 L 4.988894 0.0000602801 L 4.988894 5.469159 L -0.00143432 5.469159 L -0.00143432 0.0000602801 " stroke="#ffffff" stroke-width="1.918204" stroke-opacity="1" stroke-miterlimit="4"/></g><g clip-path="url(#0dfe17933c)"><path stroke-linecap="butt" transform="matrix(0.781981, 0, 0, 0.714954, 189.915184, 193.004615)" fill="none" stroke-linejoin="miter" d="M -0.00143432 -0.000991669 L 4.988894 -0.000991669 L 4.988894 5.468107 L -0.00143432 5.468107 L -0.00143432 -0.000991669 " stroke="#ffffff" stroke-width="1.918204" stroke-opacity="1" stroke-miterlimit="4"/></g><g clip-path="url(#38f54c5ce2)"><path stroke-linecap="butt" transform="matrix(0.781981, 0, 0, 0.714954, 189.915184, 200.626461)" fill="none" stroke-linejoin="miter" d="M -0.00143432 -0.00204362 L 4.988894 -0.00204362 L 4.988894 5.467055 L -0.00143432 5.467055 L -0.00143432 -0.00204362 " stroke="#ffffff" stroke-width="1.918204" stroke-opacity="1" stroke-miterlimit="4"/></g><g clip-path="url(#724c5f42d9)"><path stroke-linecap="butt" transform="matrix(0.781981, 0, 0, 0.714954, 189.915184, 208.248321)" fill="none" stroke-linejoin="miter" d="M -0.00143432 0.00234795 L 4.988894 0.00234795 L 4.988894 5.471447 L -0.00143432 5.471447 L -0.00143432 0.00234795 " stroke="#ffffff" stroke-width="1.918204" stroke-opacity="1" stroke-miterlimit="4"/></g><g clip-path="url(#48b13dcca3)"><g clip-path="url(#39d822656a)"><path stroke-linecap="butt" transform="matrix(0.781981, 0, 0, 0.781981, 163.648207, 176.264411)" fill="none" stroke-linejoin="miter" d="M 2.497957 0.00155191 C 1.119247 0.00155191 0.000294786 1.120504 0.000294786 2.499214 C 0.000294786 3.882918 1.119247 5.001871 2.497957 5.001871 C 3.881661 5.001871 5.000614 3.882918 5.000614 2.499214 C 5.000614 1.120504 3.881661 0.00155191 2.497957 0.00155191 " stroke="#ffffff" stroke-width="1.918204" stroke-opacity="1" stroke-miterlimit="4"/></g></g><g clip-path="url(#9ad82ecf3b)"><g clip-path="url(#706c09e540)"><path stroke-linecap="butt" transform="matrix(0.781981, 0, 0, 0.781981, 157.908742, 182.679554)" fill="none" stroke-linejoin="miter" d="M 2.49947 0.000170743 C 1.12076 0.000170743 0.00180799 1.119123 0.00180799 2.497832 C 0.00180799 3.881537 1.12076 5.00049 2.49947 5.00049 C 3.883174 5.00049 5.002127 3.881537 5.002127 2.497832 C 5.002127 1.119123 3.883174 0.000170743 2.49947 0.000170743 " stroke="#ffffff" stroke-width="1.918204" stroke-opacity="1" stroke-miterlimit="4"/></g></g><g clip-path="url(#02c66a1d0a)"><g clip-path="url(#2a1afee7f8)"><path stroke-linecap="butt" transform="matrix(0.781981, 0, 0, 0.781981, 170.420435, 182.348337)" fill="none" stroke-linejoin="miter" d="M 2.499503 -0.000871052 C 1.120794 -0.000871052 0.00184163 1.118081 0.00184163 2.501786 C 0.00184163 3.880495 1.120794 4.999448 2.499503 4.999448 C 3.883208 4.999448 5.00216 3.880495 5.00216 2.501786 C 5.00216 1.118081 3.883208 -0.000871052 2.499503 -0.000871052 " stroke="#ffffff" stroke-width="1.918204" stroke-opacity="1" stroke-miterlimit="4"/></g></g><g clip-path="url(#f240517fb7)"><g clip-path="url(#b2ad68a2b9)"><path stroke-linecap="butt" transform="matrix(0.781981, 0, 0, 0.781981, 157.908742, 189.094711)" fill="none" stroke-linejoin="miter" d="M 2.49947 -0.00122881 C 1.12076 -0.00122881 0.00180799 1.117724 0.00180799 2.501428 C 0.00180799 3.880138 1.12076 4.99909 2.49947 4.99909 C 3.883174 4.99909 5.002127 3.880138 5.002127 2.501428 C 5.002127 1.117724 3.883174 -0.00122881 2.49947 -0.00122881 " stroke="#ffffff" stroke-width="1.918204" stroke-opacity="1" stroke-miterlimit="4"/></g></g><g clip-path="url(#7f4a63396c)"><g clip-path="url(#515aec5521)"><path stroke-linecap="butt" transform="matrix(0.781981, 0, 0, 0.781981, 164.164602, 182.679554)" fill="none" stroke-linejoin="miter" d="M 2.501967 0.000170743 C 1.118263 0.000170743 -0.000689714 1.119123 -0.000689714 2.497832 C -0.000689714 3.881537 1.118263 5.00049 2.501967 5.00049 C 3.880677 5.00049 4.999629 3.881537 4.999629 2.497832 C 4.999629 1.119123 3.880677 0.000170743 2.501967 0.000170743 " stroke="#ffffff" stroke-width="1.918204" stroke-opacity="1" stroke-miterlimit="4"/></g></g><g clip-path="url(#c980028b5f)"><g clip-path="url(#138b74ab14)"><path stroke-linecap="butt" transform="matrix(0.781981, 0, 0, 0.781981, 164.164602, 189.094711)" fill="none" stroke-linejoin="miter" d="M 2.501967 -0.00122881 C 1.118263 -0.00122881 -0.000689714 1.117724 -0.000689714 2.501428 C -0.000689714 3.880138 1.118263 4.99909 2.501967 4.99909 C 3.880677 4.99909 4.999629 3.880138 4.999629 2.501428 C 4.999629 1.117724 3.880677 -0.00122881 2.501967 -0.00122881 " stroke="#ffffff" stroke-width="1.918204" stroke-opacity="1" stroke-miterlimit="4"/></g></g><g clip-path="url(#dab921cdab)"><g clip-path="url(#cfdb994897)"><path stroke-linecap="butt" transform="matrix(0.781981, 0, 0, 0.781981, 170.420435, 189.094711)" fill="none" stroke-linejoin="miter" d="M 2.499503 -0.00122881 C 1.120794 -0.00122881 0.00184163 1.117724 0.00184163 2.501428 C 0.00184163 3.880138 1.120794 4.99909 2.499503 4.99909 C 3.883208 4.99909 5.00216 3.880138 5.00216 2.501428 C 5.00216 1.117724 3.883208 -0.00122881 2.499503 -0.00122881 " stroke="#ffffff" stroke-width="1.918204" stroke-opacity="1" stroke-miterlimit="4"/></g></g><g clip-path="url(#a9b75abf82)"><g clip-path="url(#4d96ad80d8)"><path stroke-linecap="butt" transform="matrix(0.781981, 0, 0, 0.781981, 157.908742, 195.350556)" fill="none" stroke-linejoin="miter" d="M 2.49947 0.0012872 C 1.12076 0.0012872 0.00180799 1.12024 0.00180799 2.498949 C 0.00180799 3.882654 1.12076 5.001606 2.49947 5.001606 C 3.883174 5.001606 5.002127 3.882654 5.002127 2.498949 C 5.002127 1.12024 3.883174 0.0012872 2.49947 0.0012872 " stroke="#ffffff" stroke-width="1.918204" stroke-opacity="1" stroke-miterlimit="4"/></g></g><g clip-path="url(#5c6d943123)"><g clip-path="url(#9e292c0a56)"><path stroke-linecap="butt" transform="matrix(0.781981, 0, 0, 0.781981, 164.164602, 195.350556)" fill="none" stroke-linejoin="miter" d="M 2.501967 0.0012872 C 1.118263 0.0012872 -0.000689714 1.12024 -0.000689714 2.498949 C -0.000689714 3.882654 1.118263 5.001606 2.501967 5.001606 C 3.880677 5.001606 4.999629 3.882654 4.999629 2.498949 C 4.999629 1.12024 3.880677 0.0012872 2.501967 0.0012872 " stroke="#ffffff" stroke-width="1.918204" stroke-opacity="1" stroke-miterlimit="4"/></g></g><g clip-path="url(#9b9df303d5)"><g clip-path="url(#b11a80e6ef)"><path stroke-linecap="butt" transform="matrix(0.781981, 0, 0, 0.781981, 170.420435, 195.350556)" fill="none" stroke-linejoin="miter" d="M 2.499503 0.0012872 C 1.120794 0.0012872 0.00184163 1.12024 0.00184163 2.498949 C 0.00184163 3.882654 1.120794 5.001606 2.499503 5.001606 C 3.883208 5.001606 5.00216 3.882654 5.00216 2.498949 C 5.00216 1.12024 3.883208 0.0012872 2.499503 0.0012872 " stroke="#ffffff" stroke-width="1.918204" stroke-opacity="1" stroke-miterlimit="4"/></g></g><g clip-path="url(#3bfb55fa6f)"><g clip-path="url(#2961b08bae)"><path stroke-linecap="butt" transform="matrix(0.781981, 0, 0, 0.781981, 157.908742, 201.989679)" fill="none" stroke-linejoin="miter" d="M 2.49947 -0.00178707 C 1.12076 -0.00178707 0.00180799 1.117165 0.00180799 2.50087 C 0.00180799 3.879579 1.12076 4.998532 2.49947 4.998532 C 3.883174 4.998532 5.002127 3.879579 5.002127 2.50087 C 5.002127 1.117165 3.883174 -0.00178707 2.49947 -0.00178707 " stroke="#ffffff" stroke-width="1.918204" stroke-opacity="1" stroke-miterlimit="4"/></g></g><g clip-path="url(#205e94f954)"><g clip-path="url(#9e4d99be88)"><path stroke-linecap="butt" transform="matrix(0.781981, 0, 0, 0.781981, 157.908742, 208.436733)" fill="none" stroke-linejoin="miter" d="M 2.49947 0.000980212 C 1.12076 0.000980212 0.00180799 1.119933 0.00180799 2.498642 C 0.00180799 3.882347 1.12076 5.001299 2.49947 5.001299 C 3.883174 5.001299 5.002127 3.882347 5.002127 2.498642 C 5.002127 1.119933 3.883174 0.000980212 2.49947 0.000980212 " stroke="#ffffff" stroke-width="1.918204" stroke-opacity="1" stroke-miterlimit="4"/></g></g><g clip-path="url(#71c6e0de34)"><g clip-path="url(#33f31816b1)"><path stroke-linecap="butt" transform="matrix(0.781981, 0, 0, 0.781981, 157.908742, 214.448392)" fill="none" stroke-linejoin="miter" d="M 2.49947 0.00105746 C 1.12076 0.00105746 0.00180799 1.12001 0.00180799 2.498719 C 0.00180799 3.882424 1.12076 5.001376 2.49947 5.001376 C 3.883174 5.001376 5.002127 3.882424 5.002127 2.498719 C 5.002127 1.12001 3.883174 0.00105746 2.49947 0.00105746 " stroke="#ffffff" stroke-width="1.918204" stroke-opacity="1" stroke-miterlimit="4"/></g></g><g clip-path="url(#34def8491a)"><g clip-path="url(#634da534dc)"><path stroke-linecap="butt" transform="matrix(0.781981, 0, 0, 0.781981, 164.164602, 201.989679)" fill="none" stroke-linejoin="miter" d="M 2.501967 -0.00178707 C 1.118263 -0.00178707 -0.000689714 1.117165 -0.000689714 2.50087 C -0.000689714 3.879579 1.118263 4.998532 2.501967 4.998532 C 3.880677 4.998532 4.999629 3.879579 4.999629 2.50087 C 4.999629 1.117165 3.880677 -0.00178707 2.501967 -0.00178707 " stroke="#ffffff" stroke-width="1.918204" stroke-opacity="1" stroke-miterlimit="4"/></g></g><g clip-path="url(#67d3bbd23f)"><g clip-path="url(#22ef07a2c1)"><path stroke-linecap="butt" transform="matrix(0.781981, 0, 0, 0.781981, 164.164602, 208.245526)" fill="none" stroke-linejoin="miter" d="M 2.501967 0.000725882 C 1.118263 0.000725882 -0.000689714 1.119678 -0.000689714 2.498388 C -0.000689714 3.882092 1.118263 5.001045 2.501967 5.001045 C 3.880677 5.001045 4.999629 3.882092 4.999629 2.498388 C 4.999629 1.119678 3.880677 0.000725882 2.501967 0.000725882 " stroke="#ffffff" stroke-width="1.918204" stroke-opacity="1" stroke-miterlimit="4"/></g></g><g clip-path="url(#ef86b7cd57)"><g clip-path="url(#b2248ea260)"><path stroke-linecap="butt" transform="matrix(0.781981, 0, 0, 0.781981, 164.164602, 214.501374)" fill="none" stroke-linejoin="miter" d="M 2.501967 -0.00175649 C 1.118263 -0.00175649 -0.000689714 1.117196 -0.000689714 2.500901 C -0.000689714 3.87961 1.118263 4.998562 2.501967 4.998562 C 3.880677 4.998562 4.999629 3.87961 4.999629 2.500901 C 4.999629 1.117196 3.880677 -0.00175649 2.501967 -0.00175649 " stroke="#ffffff" stroke-width="1.918204" stroke-opacity="1" stroke-miterlimit="4"/></g></g><g clip-path="url(#714c6c0f5c)"><path fill="#ffffff" d="M 154.417969 201.164062 L 154.410156 201.164062 C 154.414062 201.128906 154.414062 201.09375 154.414062 201.054688 C 154.414062 201.09375 154.414062 201.128906 154.417969 201.164062 Z M 167.339844 200.285156 C 166.761719 199.730469 165.988281 199.152344 165.023438 198.71875 C 164.058594 198.285156 162.902344 197.992188 161.679688 197.996094 C 160.984375 197.988281 160.320312 198.0625 159.699219 198.195312 C 159.570312 198.125 159.421875 198.050781 159.25 197.984375 C 159.152344 197.949219 159.050781 197.914062 158.9375 197.886719 C 159.867188 197.425781 160.8125 197.152344 161.601562 197.042969 C 162.558594 196.914062 163.28125 197.019531 163.273438 197 C 163.269531 197.015625 162.796875 196.421875 161.757812 195.988281 C 162.605469 195.714844 163.425781 195.554688 164.152344 195.496094 C 165.472656 195.367188 166.464844 195.566406 166.449219 195.542969 C 166.445312 195.5625 165.824219 194.734375 164.398438 194.089844 C 163.691406 193.777344 162.785156 193.535156 161.761719 193.539062 C 160.742188 193.535156 159.605469 193.78125 158.5625 194.363281 C 156.425781 195.507812 155.214844 197.558594 154.734375 199.136719 C 154.507812 199.863281 154.417969 200.496094 154.414062 200.980469 C 154.410156 200.496094 154.320312 199.863281 154.09375 199.136719 C 153.613281 197.558594 152.402344 195.507812 150.265625 194.363281 C 149.222656 193.78125 148.085938 193.535156 147.066406 193.539062 C 146.042969 193.535156 145.136719 193.777344 144.429688 194.089844 C 143.003906 194.734375 142.382812 195.5625 142.378906 195.542969 C 142.363281 195.566406 143.355469 195.367188 144.675781 195.496094 C 145.402344 195.554688 146.222656 195.714844 147.070312 195.988281 C 146.03125 196.421875 145.558594 197.015625 145.554688 197 C 145.546875 197.019531 146.269531 196.914062 147.226562 197.042969 C 148.015625 197.152344 148.960938 197.425781 149.890625 197.886719 C 149.777344 197.914062 149.675781 197.949219 149.578125 197.984375 C 149.40625 198.050781 149.257812 198.125 149.128906 198.195312 C 148.507812 198.0625 147.84375 197.988281 147.148438 197.996094 C 145.925781 197.992188 144.769531 198.285156 143.804688 198.71875 C 142.839844 199.152344 142.066406 199.730469 141.488281 200.285156 C 140.335938 201.417969 139.960938 202.390625 139.953125 202.378906 C 139.945312 202.40625 140.859375 201.871094 142.195312 201.457031 C 142.925781 201.21875 143.785156 201.019531 144.710938 200.886719 C 143.851562 201.730469 143.574219 202.457031 143.566406 202.449219 C 143.5625 202.46875 144.25 202.074219 145.25 201.757812 C 146.074219 201.492188 147.113281 201.292969 148.226562 201.230469 C 148.125 201.3125 148.035156 201.390625 147.953125 201.472656 C 147.375 202.039062 147.1875 202.523438 147.183594 202.519531 C 147.179688 202.53125 147.636719 202.261719 148.304688 202.054688 C 148.972656 201.839844 149.855469 201.683594 150.78125 201.691406 C 150.875 201.691406 150.96875 201.695312 151.0625 201.699219 C 149.414062 201.941406 147.304688 202.769531 145.621094 204.519531 C 144.699219 205.445312 144.046875 206.542969 143.644531 207.601562 C 143.242188 208.664062 143.089844 209.6875 143.070312 210.542969 C 143.042969 212.269531 143.484375 213.285156 143.46875 213.285156 C 143.484375 213.308594 143.773438 212.210938 144.46875 210.886719 C 144.839844 210.152344 145.335938 209.347656 145.9375 208.542969 C 145.914062 209.832031 146.25 210.589844 146.238281 210.585938 C 146.25 210.605469 146.472656 209.785156 146.984375 208.789062 C 147.414062 207.960938 148.042969 207.023438 148.832031 206.128906 C 148.816406 206.265625 148.808594 206.394531 148.808594 206.519531 C 148.792969 207.382812 149.015625 207.890625 149.007812 207.890625 C 149.015625 207.902344 149.160156 207.355469 149.503906 206.691406 C 149.847656 206.019531 150.394531 205.230469 151.097656 204.535156 C 151.667969 203.949219 152.308594 203.542969 152.882812 203.25 C 152.894531 203.246094 152.910156 203.242188 152.921875 203.234375 C 152.71875 206.609375 152.085938 210.417969 151.882812 213.632812 C 151.5 217.753906 151.824219 220.898438 151.808594 220.898438 C 151.808594 220.898438 155.960938 220.898438 157.132812 220.898438 C 156.269531 216.316406 156.109375 212.234375 155.894531 208.746094 C 155.78125 206.621094 155.644531 204.71875 155.488281 203.054688 C 155.628906 203.117188 155.78125 203.183594 155.945312 203.25 C 156.519531 203.542969 157.160156 203.949219 157.730469 204.535156 C 158.433594 205.230469 158.980469 206.019531 159.324219 206.691406 C 159.667969 207.355469 159.8125 207.902344 159.820312 207.890625 C 159.8125 207.890625 160.035156 207.382812 160.019531 206.519531 C 160.019531 206.394531 160.011719 206.265625 159.996094 206.128906 C 160.785156 207.023438 161.414062 207.960938 161.84375 208.789062 C 162.355469 209.785156 162.578125 210.605469 162.589844 210.585938 C 162.578125 210.589844 162.914062 209.832031 162.890625 208.542969 C 163.492188 209.347656 163.988281 210.152344 164.359375 210.886719 C 165.054688 212.210938 165.34375 213.308594 165.359375 213.285156 C 165.34375 213.285156 165.785156 212.269531 165.757812 210.542969 C 165.738281 209.6875 165.585938 208.664062 165.183594 207.601562 C 164.78125 206.542969 164.128906 205.445312 163.207031 204.519531 C 161.523438 202.769531 159.414062 201.941406 157.765625 201.699219 C 157.859375 201.695312 157.953125 201.691406 158.046875 201.691406 C 158.972656 201.683594 159.855469 201.839844 160.523438 202.054688 C 161.191406 202.261719 161.648438 202.53125 161.644531 202.519531 C 161.640625 202.523438 161.453125 202.039062 160.875 201.472656 C 160.792969 201.390625 160.703125 201.3125 160.601562 201.230469 C 161.714844 201.292969 162.753906 201.492188 163.578125 201.757812 C 164.578125 202.074219 165.265625 202.46875 165.261719 202.449219 C 165.253906 202.457031 164.976562 201.730469 164.117188 200.886719 C 165.042969 201.019531 165.902344 201.21875 166.632812 201.457031 C 167.96875 201.871094 168.882812 202.40625 168.875 202.378906 C 168.867188 202.390625 168.492188 201.417969 167.339844 200.285156 " fill-opacity="1" fill-rule="nonzero"/></g><g clip-path="url(#249ed4cbb9)"><g clip-path="url(#17c8470b16)"><path stroke-linecap="butt" transform="matrix(0.781981, 0, 0, 0.781981, 170.420435, 201.606403)" fill="none" stroke-linejoin="miter" d="M 2.499503 -0.00119517 C 1.120794 -0.00119517 0.00184163 1.117757 0.00184163 2.501462 C 0.00184163 3.880171 1.120794 4.999124 2.499503 4.999124 C 3.883208 4.999124 5.00216 3.880171 5.00216 2.501462 C 5.00216 1.117757 3.883208 -0.00119517 2.499503 -0.00119517 " stroke="#ffffff" stroke-width="1.918204" stroke-opacity="1" stroke-miterlimit="4"/></g></g><g clip-path="url(#6efe093348)"><g clip-path="url(#f2a6c8d6f6)"><path stroke-linecap="butt" transform="matrix(0.781981, 0, 0, 0.781981, 170.420435, 207.862265)" fill="none" stroke-linejoin="miter" d="M 2.499503 0.00129938 C 1.120794 0.00129938 0.00184163 1.120252 0.00184163 2.498961 C 0.00184163 3.882666 1.120794 5.001618 2.499503 5.001618 C 3.883208 5.001618 5.00216 3.882666 5.00216 2.498961 C 5.00216 1.120252 3.883208 0.00129938 2.499503 0.00129938 " stroke="#ffffff" stroke-width="1.918204" stroke-opacity="1" stroke-miterlimit="4"/></g></g><g clip-path="url(#4d27cc8157)"><g clip-path="url(#b5ea76ea98)"><path stroke-linecap="butt" transform="matrix(0.781981, 0, 0, 0.781981, 170.420435, 214.501374)" fill="none" stroke-linejoin="miter" d="M 2.499503 -0.00175649 C 1.120794 -0.00175649 0.00184163 1.117196 0.00184163 2.500901 C 0.00184163 3.87961 1.120794 4.998562 2.499503 4.998562 C 3.883208 4.998562 5.00216 3.87961 5.00216 2.500901 C 5.00216 1.117196 3.883208 -0.00175649 2.499503 -0.00175649 " stroke="#ffffff" stroke-width="1.918204" stroke-opacity="1" stroke-miterlimit="4"/></g></g><path stroke-linecap="butt" transform="matrix(0.845385, -0.000000000000031139, 0.000000000000028804, 0.781981, 244.024017, 166.412992)" fill="none" stroke-linejoin="miter" d="M -0.000685154 0.500901 L 4.62923 0.500901 " stroke="#ffffff" stroke-width="1" stroke-opacity="1" stroke-miterlimit="4"/><path stroke-linecap="butt" transform="matrix(0.845385, -0.000000000000031139, 0.000000000000028804, 0.781981, 244.024017, 171.643846)" fill="none" stroke-linejoin="miter" d="M -0.000685154 0.500409 L 4.62923 0.500409 " stroke="#ffffff" stroke-width="1" stroke-opacity="1" stroke-miterlimit="4"/><path stroke-linecap="butt" transform="matrix(0.845385, -0.000000000000031139, 0.000000000000028804, 0.781981, 244.024017, 176.874671)" fill="none" stroke-linejoin="miter" d="M -0.000685154 0.499953 L 4.62923 0.499953 " stroke="#ffffff" stroke-width="1" stroke-opacity="1" stroke-miterlimit="4"/><path stroke-linecap="butt" transform="matrix(0.845385, -0.000000000000031139, 0.000000000000028804, 0.781981, 244.024017, 182.047669)" fill="none" stroke-linejoin="miter" d="M -0.000685154 0.498517 L 4.62923 0.498517 " stroke="#ffffff" stroke-width="1" stroke-opacity="1" stroke-miterlimit="4"/><path stroke-linecap="butt" transform="matrix(0.845385, -0.000000000000031139, 0.000000000000028804, 0.781981, 244.024017, 187.22067)" fill="none" stroke-linejoin="miter" d="M -0.000685154 0.502073 L 4.62923 0.502073 " stroke="#ffffff" stroke-width="1" stroke-opacity="1" stroke-miterlimit="4"/><path stroke-linecap="butt" transform="matrix(0.845385, -0.000000000000031139, 0.000000000000028804, 0.781981, 244.024017, 192.393656)" fill="none" stroke-linejoin="miter" d="M -0.000685154 0.500652 L 4.62923 0.500652 " stroke="#ffffff" stroke-width="1" stroke-opacity="1" stroke-miterlimit="4"/><path stroke-linecap="butt" transform="matrix(0.845385, -0.000000000000031139, 0.000000000000028804, 0.781981, 244.024017, 197.566657)" fill="none" stroke-linejoin="miter" d="M -0.000685154 0.499212 L 4.62923 0.499212 " stroke="#ffffff" stroke-width="1" stroke-opacity="1" stroke-miterlimit="4"/><path stroke-linecap="butt" transform="matrix(0.845385, -0.000000000000031139, 0.000000000000028804, 0.781981, 244.024017, 202.739669)" fill="none" stroke-linejoin="miter" d="M -0.000685154 0.497757 L 4.62923 0.497757 " stroke="#ffffff" stroke-width="1" stroke-opacity="1" stroke-miterlimit="4"/><path stroke-linecap="butt" transform="matrix(0.845385, -0.000000000000031139, 0.000000000000028804, 0.781981, 244.024017, 207.91267)" fill="none" stroke-linejoin="miter" d="M -0.000685154 0.501313 L 4.62923 0.501313 " stroke="#ffffff" stroke-width="1" stroke-opacity="1" stroke-miterlimit="4"/><path stroke-linecap="butt" transform="matrix(0.845385, -0.000000000000031139, 0.000000000000028804, 0.781981, 244.024017, 213.085642)" fill="none" stroke-linejoin="miter" d="M -0.000685154 0.499911 L 4.62923 0.499911 " stroke="#ffffff" stroke-width="1" stroke-opacity="1" stroke-miterlimit="4"/><path stroke-linecap="butt" transform="matrix(0.845385, -0.000000000000031139, 0.000000000000028804, 0.781981, 252.828526, 174.425826)" fill="none" stroke-linejoin="miter" d="M -0.00047458 0.499476 L 4.629441 0.499476 " stroke="#ffffff" stroke-width="1" stroke-opacity="1" stroke-miterlimit="4"/><path stroke-linecap="butt" transform="matrix(0.845385, -0.000000000000031139, 0.000000000000028804, 0.781981, 252.828526, 179.082415)" fill="none" stroke-linejoin="miter" d="M -0.00047458 0.499042 L 4.629441 0.499042 " stroke="#ffffff" stroke-width="1" stroke-opacity="1" stroke-miterlimit="4"/><path stroke-linecap="butt" transform="matrix(0.845385, -0.000000000000031139, 0.000000000000028804, 0.781981, 252.828526, 183.739004)" fill="none" stroke-linejoin="miter" d="M -0.00047458 0.498609 L 4.629441 0.498609 " stroke="#ffffff" stroke-width="1" stroke-opacity="1" stroke-miterlimit="4"/><path stroke-linecap="butt" transform="matrix(0.845385, -0.000000000000031139, 0.000000000000028804, 0.781981, 252.828526, 188.703721)" fill="none" stroke-linejoin="miter" d="M -0.00047458 0.49877 L 4.629441 0.49877 " stroke="#ffffff" stroke-width="1" stroke-opacity="1" stroke-miterlimit="4"/><path stroke-linecap="butt" transform="matrix(0.845385, -0.000000000000031139, 0.000000000000028804, 0.781981, 252.828526, 193.668441)" fill="none" stroke-linejoin="miter" d="M -0.00047458 0.498928 L 4.629441 0.498928 " stroke="#ffffff" stroke-width="1" stroke-opacity="1" stroke-miterlimit="4"/><path stroke-linecap="butt" transform="matrix(0.845385, -0.000000000000031139, 0.000000000000028804, 0.781981, 252.828526, 198.633159)" fill="none" stroke-linejoin="miter" d="M -0.00047458 0.499089 L 4.629441 0.499089 " stroke="#ffffff" stroke-width="1" stroke-opacity="1" stroke-miterlimit="4"/><path stroke-linecap="butt" transform="matrix(0.845385, -0.000000000000031139, 0.000000000000028804, 0.781981, 252.828526, 203.597862)" fill="none" stroke-linejoin="miter" d="M -0.00047458 0.499269 L 4.629441 0.499269 " stroke="#ffffff" stroke-width="1" stroke-opacity="1" stroke-miterlimit="4"/><path stroke-linecap="butt" transform="matrix(0.845385, -0.000000000000031139, 0.000000000000028804, 0.781981, 252.828526, 208.56258)" fill="none" stroke-linejoin="miter" d="M -0.00047458 0.49943 L 4.629441 0.49943 " stroke="#ffffff" stroke-width="1" stroke-opacity="1" stroke-miterlimit="4"/><path stroke-linecap="butt" transform="matrix(0.845385, -0.000000000000031139, 0.000000000000028804, 0.781981, 252.828526, 213.484149)" fill="none" stroke-linejoin="miter" d="M -0.00047458 0.499821 L 4.629441 0.499821 " stroke="#ffffff" stroke-width="1" stroke-opacity="1" stroke-miterlimit="4"/><g clip-path="url(#a5e6c15841)"><g clip-path="url(#8f74841cb0)"><path stroke-linecap="butt" transform="matrix(0.781981, 0, 0, 0.774283, 262.322083, 191.442231)" fill="none" stroke-linejoin="miter" d="M 2.500393 -0.00106568 C 3.879102 -0.00106568 4.998054 1.118923 4.998054 2.501251 L 4.998054 8.610737 C 4.998054 9.98802 3.879102 11.108009 2.500393 11.108009 C 1.116688 11.108009 -0.00226434 9.98802 -0.00226434 8.610737 L -0.00226434 2.501251 C -0.00226434 1.118923 1.116688 -0.00106568 2.500393 -0.00106568 " stroke="#ffffff" stroke-width="1.918204" stroke-opacity="1" stroke-miterlimit="4"/></g></g><g clip-path="url(#487d62e27f)"><g clip-path="url(#220061e6aa)"><path stroke-linecap="butt" transform="matrix(0.781981, 0, 0, 0.774283, 271.705846, 191.442231)" fill="none" stroke-linejoin="miter" d="M 2.499178 -0.00106568 C 3.877887 -0.00106568 4.996839 1.118923 4.996839 2.501251 L 4.996839 8.610737 C 4.996839 9.98802 3.877887 11.108009 2.499178 11.108009 C 1.120468 11.108009 0.00151581 9.98802 0.00151581 8.610737 L 0.00151581 2.501251 C 0.00151581 1.118923 1.120468 -0.00106568 2.499178 -0.00106568 " stroke="#ffffff" stroke-width="1.918204" stroke-opacity="1" stroke-miterlimit="4"/></g></g><g clip-path="url(#87bc30fd96)"><g clip-path="url(#b43a4876d2)"><path stroke-linecap="butt" transform="matrix(0.781981, 0, 0, 0.774283, 281.242072, 190.948661)" fill="none" stroke-linejoin="miter" d="M 2.49781 0.00072063 C 3.881515 0.00072063 5.000467 1.120709 5.000467 2.497992 L 5.000467 8.612524 C 5.000467 9.989807 3.881515 11.109795 2.49781 11.109795 C 1.119101 11.109795 0.000148211 9.989807 0.000148211 8.612524 L 0.000148211 2.497992 C 0.000148211 1.120709 1.119101 0.00072063 2.49781 0.00072063 " stroke="#ffffff" stroke-width="1.918204" stroke-opacity="1" stroke-miterlimit="4"/></g></g><g clip-path="url(#4d0e07baa0)"><g clip-path="url(#e829f0add5)"><path stroke-linecap="butt" transform="matrix(0.781981, 0, 0, 0.774283, 267.52423, 200.567891)" fill="none" stroke-linejoin="miter" d="M 2.496649 -0.00191808 C 3.880353 -0.00191808 4.999306 1.11807 4.999306 2.500398 L 4.999306 8.609885 C 4.999306 9.992213 3.880353 11.107156 2.496649 11.107156 C 1.117939 11.107156 -0.00101297 9.992213 -0.00101297 8.609885 L -0.00101297 2.500398 C -0.00101297 1.11807 1.117939 -0.00191808 2.496649 -0.00191808 " stroke="#ffffff" stroke-width="1.918204" stroke-opacity="1" stroke-miterlimit="4"/></g></g><g clip-path="url(#cab6cc62c1)"><g clip-path="url(#867285a9ed)"><path stroke-linecap="butt" transform="matrix(0.781981, 0, 0, 0.774283, 276.788743, 200.567891)" fill="none" stroke-linejoin="miter" d="M 2.49807 -0.00191808 C 3.876779 -0.00191808 4.995732 1.11807 4.995732 2.500398 L 4.995732 8.609885 C 4.995732 9.992213 3.876779 11.107156 2.49807 11.107156 C 1.119361 11.107156 0.000408111 9.992213 0.000408111 8.609885 L 0.000408111 2.500398 C 0.000408111 1.11807 1.119361 -0.00191808 2.49807 -0.00191808 " stroke="#ffffff" stroke-width="1.918204" stroke-opacity="1" stroke-miterlimit="4"/></g></g><g clip-path="url(#32698ae4db)"><g clip-path="url(#c6ddda2f1c)"><path stroke-linecap="butt" transform="matrix(0.781981, 0, 0, 0.774283, 262.050374, 210.538471)" fill="none" stroke-linejoin="miter" d="M 2.498183 0.000764299 C 3.876892 0.000764299 4.995845 1.120753 4.995845 2.498036 L 4.995845 8.612567 C 4.995845 9.98985 3.876892 11.109839 2.498183 11.109839 C 1.119474 11.109839 0.000521279 9.98985 0.000521279 8.612567 L 0.000521279 2.498036 C 0.000521279 1.120753 1.119474 0.000764299 2.498183 0.000764299 " stroke="#ffffff" stroke-width="1.918204" stroke-opacity="1" stroke-miterlimit="4"/></g></g><g clip-path="url(#bef2a1c5d5)"><g clip-path="url(#b60c9d92f9)"><path stroke-linecap="butt" transform="matrix(0.781981, 0, 0, 0.774283, 271.705846, 210.103048)" fill="none" stroke-linejoin="miter" d="M 2.499178 -0.00191842 C 3.877887 -0.00191842 4.996839 1.11807 4.996839 2.500398 L 4.996839 8.609885 C 4.996839 9.992213 3.877887 11.107156 2.499178 11.107156 C 1.120468 11.107156 0.00151581 9.992213 0.00151581 8.609885 L 0.00151581 2.500398 C 0.00151581 1.11807 1.120468 -0.00191842 2.499178 -0.00191842 " stroke="#ffffff" stroke-width="1.918204" stroke-opacity="1" stroke-miterlimit="4"/></g></g><g clip-path="url(#e3d8c4ee4b)"><g clip-path="url(#d97c51b69a)"><path stroke-linecap="butt" transform="matrix(0.781981, 0, 0, 0.774283, 281.361347, 209.667623)" fill="none" stroke-linejoin="miter" d="M 2.500135 0.000446945 C 3.878845 0.000446945 4.997797 1.120435 4.997797 2.497718 L 4.997797 8.61225 C 4.997797 9.989533 3.878845 11.109522 2.500135 11.109522 C 1.116431 11.109522 0.00247356 9.989533 0.00247356 8.61225 L 0.00247356 2.497718 C 0.00247356 1.120435 1.116431 0.000446945 2.500135 0.000446945 " stroke="#ffffff" stroke-width="1.918204" stroke-opacity="1" stroke-miterlimit="4"/></g></g><g clip-path="url(#8ba0f7623f)"><path fill="#ffffff" d="M 285.121094 198.300781 L 285.117188 198.300781 C 285.117188 198.261719 285.121094 198.21875 285.121094 198.175781 C 285.121094 198.21875 285.121094 198.261719 285.121094 198.300781 Z M 299.789062 197.320312 C 299.136719 196.699219 298.257812 196.058594 297.160156 195.574219 C 296.070312 195.089844 294.753906 194.761719 293.367188 194.769531 C 292.582031 194.757812 291.824219 194.839844 291.117188 194.992188 C 290.972656 194.910156 290.804688 194.828125 290.609375 194.757812 C 290.5 194.714844 290.382812 194.679688 290.253906 194.648438 C 291.3125 194.132812 292.382812 193.828125 293.28125 193.707031 C 294.367188 193.5625 295.1875 193.679688 295.175781 193.660156 C 295.171875 193.675781 294.636719 193.015625 293.457031 192.53125 C 294.417969 192.226562 295.351562 192.050781 296.175781 191.984375 C 297.671875 191.839844 298.796875 192.0625 298.78125 192.035156 C 298.773438 192.054688 298.070312 191.136719 296.453125 190.417969 C 295.652344 190.070312 294.625 189.800781 293.460938 189.800781 C 292.304688 189.800781 291.011719 190.074219 289.832031 190.722656 C 287.402344 191.996094 286.03125 194.28125 285.480469 196.042969 C 285.222656 196.851562 285.125 197.554688 285.121094 198.09375 C 285.113281 197.554688 285.015625 196.851562 284.757812 196.042969 C 284.210938 194.28125 282.835938 191.996094 280.410156 190.722656 C 279.226562 190.074219 277.9375 189.800781 276.78125 189.800781 C 275.617188 189.800781 274.589844 190.070312 273.785156 190.417969 C 272.167969 191.136719 271.464844 192.054688 271.457031 192.035156 C 271.441406 192.0625 272.566406 191.839844 274.066406 191.984375 C 274.890625 192.050781 275.824219 192.226562 276.785156 192.53125 C 275.601562 193.015625 275.070312 193.675781 275.066406 193.660156 C 275.050781 193.679688 275.875 193.5625 276.960938 193.707031 C 277.859375 193.828125 278.929688 194.132812 279.984375 194.648438 C 279.859375 194.679688 279.738281 194.714844 279.628906 194.757812 C 279.433594 194.828125 279.265625 194.910156 279.121094 194.992188 C 278.414062 194.839844 277.660156 194.757812 276.871094 194.769531 C 275.484375 194.761719 274.171875 195.089844 273.078125 195.574219 C 271.980469 196.058594 271.101562 196.699219 270.449219 197.320312 C 269.140625 198.582031 268.714844 199.664062 268.703125 199.652344 C 268.699219 199.679688 269.734375 199.085938 271.25 198.625 C 272.078125 198.359375 273.050781 198.136719 274.109375 197.988281 C 273.128906 198.929688 272.816406 199.738281 272.808594 199.730469 C 272.804688 199.75 273.582031 199.3125 274.714844 198.957031 C 275.65625 198.664062 276.832031 198.441406 278.09375 198.375 C 277.980469 198.460938 277.878906 198.550781 277.785156 198.640625 C 277.128906 199.273438 276.917969 199.8125 276.910156 199.804688 C 276.910156 199.820312 277.425781 199.523438 278.183594 199.292969 C 278.945312 199.050781 279.945312 198.875 280.996094 198.886719 C 281.105469 198.886719 281.210938 198.890625 281.316406 198.894531 C 279.445312 199.164062 277.046875 200.085938 275.136719 202.035156 C 274.089844 203.066406 273.351562 204.292969 272.898438 205.472656 C 272.4375 206.65625 272.265625 207.792969 272.242188 208.746094 C 272.210938 210.671875 272.714844 211.804688 272.695312 211.800781 C 272.710938 211.828125 273.039062 210.605469 273.828125 209.128906 C 274.253906 208.3125 274.816406 207.417969 275.5 206.519531 C 275.472656 207.957031 275.851562 208.796875 275.835938 208.796875 C 275.851562 208.816406 276.105469 207.90625 276.6875 206.792969 C 277.171875 205.875 277.886719 204.828125 278.785156 203.832031 C 278.769531 203.984375 278.757812 204.128906 278.753906 204.265625 C 278.738281 205.226562 278.992188 205.792969 278.980469 205.792969 C 278.988281 205.804688 279.152344 205.195312 279.546875 204.457031 C 279.9375 203.707031 280.554688 202.828125 281.355469 202.054688 C 282.003906 201.402344 282.730469 200.945312 283.382812 200.625 C 283.394531 200.617188 283.410156 200.613281 283.425781 200.605469 C 283.195312 204.363281 282.476562 208.609375 282.246094 212.191406 C 281.8125 216.78125 282.179688 220.285156 282.164062 220.285156 C 282.164062 220.285156 286.875 220.285156 288.207031 220.285156 C 287.222656 215.183594 287.046875 210.632812 286.800781 206.746094 C 286.671875 204.378906 286.515625 202.257812 286.339844 200.40625 C 286.5 200.472656 286.671875 200.546875 286.859375 200.625 C 287.507812 200.945312 288.238281 201.402344 288.886719 202.054688 C 289.683594 202.828125 290.304688 203.707031 290.691406 204.457031 C 291.085938 205.195312 291.25 205.804688 291.257812 205.792969 C 291.25 205.792969 291.5 205.226562 291.484375 204.265625 C 291.480469 204.128906 291.472656 203.984375 291.453125 203.832031 C 292.351562 204.828125 293.066406 205.875 293.550781 206.792969 C 294.136719 207.90625 294.386719 208.816406 294.402344 208.796875 C 294.386719 208.796875 294.765625 207.957031 294.742188 206.519531 C 295.425781 207.417969 295.988281 208.3125 296.410156 209.128906 C 297.199219 210.605469 297.527344 211.828125 297.546875 211.800781 C 297.527344 211.804688 298.027344 210.671875 297.996094 208.746094 C 297.976562 207.792969 297.800781 206.65625 297.34375 205.472656 C 296.890625 204.292969 296.148438 203.066406 295.101562 202.035156 C 293.191406 200.085938 290.792969 199.164062 288.925781 198.894531 C 289.03125 198.890625 289.136719 198.886719 289.242188 198.886719 C 290.296875 198.875 291.296875 199.050781 292.054688 199.292969 C 292.8125 199.523438 293.332031 199.820312 293.328125 199.804688 C 293.324219 199.8125 293.109375 199.273438 292.457031 198.640625 C 292.359375 198.550781 292.257812 198.460938 292.144531 198.375 C 293.410156 198.441406 294.585938 198.664062 295.523438 198.957031 C 296.65625 199.3125 297.4375 199.75 297.433594 199.730469 C 297.421875 199.738281 297.109375 198.929688 296.132812 197.988281 C 297.1875 198.136719 298.160156 198.359375 298.992188 198.625 C 300.503906 199.085938 301.542969 199.679688 301.535156 199.652344 C 301.523438 199.664062 301.101562 198.582031 299.789062 197.320312 " fill-opacity="1" fill-rule="nonzero"/></g><g clip-path="url(#bd2e3bb9f4)"><path fill="#ffffff" d="M 259.417969 207.929688 L 259.414062 207.929688 C 259.414062 207.90625 259.417969 207.882812 259.417969 207.859375 C 259.417969 207.882812 259.417969 207.90625 259.417969 207.929688 Z M 267.449219 207.378906 C 267.09375 207.027344 266.613281 206.664062 266.011719 206.390625 C 265.410156 206.117188 264.691406 205.933594 263.933594 205.9375 C 263.5 205.933594 263.089844 205.980469 262.699219 206.0625 C 262.621094 206.019531 262.53125 205.972656 262.421875 205.929688 C 262.363281 205.90625 262.296875 205.886719 262.230469 205.871094 C 262.808594 205.578125 263.394531 205.40625 263.886719 205.339844 C 264.480469 205.257812 264.929688 205.324219 264.921875 205.3125 C 264.921875 205.320312 264.628906 204.949219 263.980469 204.675781 C 264.507812 204.503906 265.019531 204.40625 265.46875 204.367188 C 266.289062 204.285156 266.90625 204.410156 266.898438 204.394531 C 266.894531 204.40625 266.507812 203.886719 265.621094 203.484375 C 265.183594 203.289062 264.621094 203.136719 263.984375 203.136719 C 263.351562 203.136719 262.644531 203.289062 261.996094 203.65625 C 260.667969 204.375 259.914062 205.664062 259.613281 206.65625 C 259.472656 207.113281 259.417969 207.511719 259.417969 207.8125 C 259.414062 207.511719 259.359375 207.113281 259.21875 206.65625 C 258.917969 205.664062 258.164062 204.375 256.835938 203.65625 C 256.1875 203.289062 255.484375 203.136719 254.847656 203.136719 C 254.210938 203.136719 253.648438 203.289062 253.210938 203.484375 C 252.324219 203.886719 251.9375 204.40625 251.933594 204.394531 C 251.925781 204.410156 252.542969 204.285156 253.363281 204.367188 C 253.8125 204.40625 254.324219 204.503906 254.851562 204.675781 C 254.203125 204.949219 253.910156 205.320312 253.910156 205.3125 C 253.902344 205.324219 254.351562 205.257812 254.949219 205.339844 C 255.441406 205.40625 256.027344 205.578125 256.605469 205.871094 C 256.535156 205.886719 256.46875 205.90625 256.410156 205.929688 C 256.304688 205.972656 256.210938 206.019531 256.132812 206.0625 C 255.742188 205.980469 255.332031 205.933594 254.898438 205.9375 C 254.140625 205.933594 253.421875 206.117188 252.824219 206.390625 C 252.222656 206.664062 251.742188 207.027344 251.382812 207.378906 C 250.664062 208.089844 250.433594 208.699219 250.425781 208.691406 C 250.421875 208.707031 250.992188 208.371094 251.820312 208.113281 C 252.273438 207.964844 252.808594 207.835938 253.386719 207.753906 C 252.851562 208.285156 252.679688 208.742188 252.675781 208.734375 C 252.671875 208.75 253.097656 208.5 253.71875 208.300781 C 254.234375 208.136719 254.878906 208.011719 255.570312 207.972656 C 255.507812 208.019531 255.449219 208.070312 255.398438 208.121094 C 255.039062 208.476562 254.925781 208.785156 254.921875 208.78125 C 254.917969 208.789062 255.203125 208.621094 255.617188 208.488281 C 256.035156 208.351562 256.582031 208.253906 257.15625 208.261719 C 257.214844 208.261719 257.273438 208.261719 257.332031 208.265625 C 256.308594 208.417969 254.996094 208.9375 253.949219 210.035156 C 253.375 210.617188 252.972656 211.308594 252.722656 211.976562 C 252.472656 212.640625 252.375 213.285156 252.363281 213.824219 C 252.347656 214.910156 252.621094 215.546875 252.613281 215.546875 C 252.621094 215.5625 252.800781 214.871094 253.234375 214.039062 C 253.464844 213.578125 253.773438 213.070312 254.148438 212.566406 C 254.132812 213.375 254.339844 213.851562 254.332031 213.851562 C 254.339844 213.863281 254.480469 213.347656 254.800781 212.71875 C 255.0625 212.203125 255.457031 211.609375 255.945312 211.050781 C 255.9375 211.136719 255.933594 211.214844 255.929688 211.292969 C 255.921875 211.835938 256.058594 212.15625 256.054688 212.15625 C 256.058594 212.164062 256.148438 211.820312 256.363281 211.402344 C 256.578125 210.980469 256.917969 210.484375 257.355469 210.046875 C 257.710938 209.679688 258.109375 209.421875 258.464844 209.242188 C 258.472656 209.238281 258.480469 209.234375 258.488281 209.230469 C 258.363281 211.351562 257.96875 213.746094 257.84375 215.765625 C 257.605469 218.355469 257.804688 220.332031 257.796875 220.332031 C 257.796875 220.332031 260.378906 220.332031 261.105469 220.332031 C 260.570312 217.453125 260.472656 214.886719 260.335938 212.691406 C 260.265625 211.359375 260.179688 210.160156 260.082031 209.117188 C 260.171875 209.15625 260.265625 209.195312 260.367188 209.242188 C 260.722656 209.421875 261.125 209.679688 261.476562 210.046875 C 261.914062 210.484375 262.253906 210.980469 262.46875 211.402344 C 262.683594 211.820312 262.773438 212.164062 262.777344 212.15625 C 262.773438 212.15625 262.910156 211.835938 262.902344 211.292969 C 262.898438 211.214844 262.894531 211.136719 262.886719 211.050781 C 263.375 211.609375 263.769531 212.203125 264.035156 212.71875 C 264.355469 213.347656 264.492188 213.863281 264.5 213.851562 C 264.492188 213.851562 264.699219 213.375 264.683594 212.566406 C 265.058594 213.070312 265.367188 213.578125 265.601562 214.039062 C 266.03125 214.871094 266.210938 215.5625 266.222656 215.546875 C 266.210938 215.546875 266.484375 214.910156 266.46875 213.824219 C 266.457031 213.285156 266.363281 212.640625 266.109375 211.976562 C 265.859375 211.308594 265.457031 210.617188 264.882812 210.035156 C 263.835938 208.9375 262.523438 208.417969 261.5 208.265625 C 261.558594 208.261719 261.617188 208.261719 261.675781 208.261719 C 262.25 208.253906 262.796875 208.351562 263.214844 208.488281 C 263.628906 208.621094 263.914062 208.789062 263.910156 208.78125 C 263.90625 208.785156 263.792969 208.476562 263.433594 208.121094 C 263.382812 208.070312 263.324219 208.019531 263.261719 207.972656 C 263.957031 208.011719 264.601562 208.136719 265.113281 208.300781 C 265.734375 208.5 266.160156 208.75 266.160156 208.734375 C 266.152344 208.742188 265.984375 208.285156 265.445312 207.753906 C 266.023438 207.835938 266.558594 207.964844 267.011719 208.113281 C 267.839844 208.371094 268.410156 208.707031 268.40625 208.691406 C 268.398438 208.699219 268.167969 208.089844 267.449219 207.378906 " fill-opacity="1" fill-rule="nonzero"/></g><g fill="#ffffff" fill-opacity="1"><g transform="translate(62.131662, 258.458217)"><g><path d="M 11.328125 -26.15625 C 12.722656 -26.15625 14.082031 -25.953125 15.40625 -25.546875 C 16.738281 -25.140625 17.726562 -24.742188 18.375 -24.359375 L 19.3125 -23.734375 L 16.9375 -19.0625 C 16.75 -19.1875 16.488281 -19.347656 16.15625 -19.546875 C 15.820312 -19.742188 15.195312 -20.003906 14.28125 -20.328125 C 13.375 -20.660156 12.523438 -20.828125 11.734375 -20.828125 C 10.765625 -20.828125 10.015625 -20.617188 9.484375 -20.203125 C 8.953125 -19.796875 8.6875 -19.238281 8.6875 -18.53125 C 8.6875 -18.175781 8.8125 -17.847656 9.0625 -17.546875 C 9.3125 -17.242188 9.734375 -16.921875 10.328125 -16.578125 C 10.929688 -16.234375 11.460938 -15.957031 11.921875 -15.75 C 12.378906 -15.550781 13.085938 -15.242188 14.046875 -14.828125 C 15.703125 -14.117188 17.113281 -13.15625 18.28125 -11.9375 C 19.457031 -10.726562 20.046875 -9.351562 20.046875 -7.8125 C 20.046875 -6.34375 19.78125 -5.054688 19.25 -3.953125 C 18.726562 -2.847656 18.003906 -1.984375 17.078125 -1.359375 C 16.148438 -0.742188 15.125 -0.285156 14 0.015625 C 12.882812 0.316406 11.675781 0.46875 10.375 0.46875 C 9.25 0.46875 8.144531 0.351562 7.0625 0.125 C 5.988281 -0.101562 5.085938 -0.390625 4.359375 -0.734375 C 3.628906 -1.078125 2.972656 -1.410156 2.390625 -1.734375 C 1.816406 -2.066406 1.394531 -2.347656 1.125 -2.578125 L 0.71875 -2.921875 L 3.640625 -7.84375 C 3.890625 -7.632812 4.234375 -7.367188 4.671875 -7.046875 C 5.109375 -6.734375 5.878906 -6.304688 6.984375 -5.765625 C 8.097656 -5.222656 9.082031 -4.953125 9.9375 -4.953125 C 12.40625 -4.953125 13.640625 -5.789062 13.640625 -7.46875 C 13.640625 -7.820312 13.550781 -8.148438 13.375 -8.453125 C 13.195312 -8.753906 12.882812 -9.054688 12.4375 -9.359375 C 11.988281 -9.660156 11.59375 -9.898438 11.25 -10.078125 C 10.914062 -10.253906 10.359375 -10.519531 9.578125 -10.875 C 8.796875 -11.238281 8.21875 -11.515625 7.84375 -11.703125 C 6.289062 -12.472656 5.085938 -13.429688 4.234375 -14.578125 C 3.378906 -15.734375 2.953125 -16.976562 2.953125 -18.3125 C 2.953125 -20.613281 3.800781 -22.492188 5.5 -23.953125 C 7.207031 -25.421875 9.148438 -26.15625 11.328125 -26.15625 Z M 11.328125 -26.15625 "/></g></g></g><g fill="#ffffff" fill-opacity="1"><g transform="translate(83.060975, 258.458217)"><g><path d="M 0.71875 -12.859375 C 0.71875 -16.578125 1.984375 -19.722656 4.515625 -22.296875 C 7.046875 -24.867188 10.097656 -26.15625 13.671875 -26.15625 C 17.265625 -26.15625 20.316406 -24.875 22.828125 -22.3125 C 25.335938 -19.75 26.59375 -16.597656 26.59375 -12.859375 C 26.59375 -9.097656 25.359375 -5.9375 22.890625 -3.375 C 20.421875 -0.8125 17.347656 0.46875 13.671875 0.46875 C 9.910156 0.46875 6.8125 -0.800781 4.375 -3.34375 C 1.9375 -5.882812 0.71875 -9.054688 0.71875 -12.859375 Z M 7.03125 -12.859375 C 7.03125 -11.515625 7.238281 -10.285156 7.65625 -9.171875 C 8.070312 -8.054688 8.796875 -7.113281 9.828125 -6.34375 C 10.867188 -5.582031 12.148438 -5.203125 13.671875 -5.203125 C 15.847656 -5.203125 17.488281 -5.945312 18.59375 -7.4375 C 19.707031 -8.9375 20.265625 -10.742188 20.265625 -12.859375 C 20.265625 -14.953125 19.695312 -16.75 18.5625 -18.25 C 17.4375 -19.757812 15.804688 -20.515625 13.671875 -20.515625 C 11.554688 -20.515625 9.921875 -19.757812 8.765625 -18.25 C 7.609375 -16.75 7.03125 -14.953125 7.03125 -12.859375 Z M 7.03125 -12.859375 "/></g></g></g><g fill="#ffffff" fill-opacity="1"><g transform="translate(110.374971, 258.458217)"><g><path d="M 7.71875 -15.9375 L 7.71875 0 L 1.875 0 L 1.875 -25.6875 L 7.71875 -25.6875 L 17.9375 -9.75 L 18 -9.75 L 18 -25.6875 L 23.859375 -25.6875 L 23.859375 0 L 18 0 L 7.78125 -15.9375 Z M 7.71875 -15.9375 "/></g></g></g><g fill="#ffffff" fill-opacity="1"><g transform="translate(136.100579, 258.458217)"><g><path d="M 1.875 -11.390625 L 11.890625 -11.390625 L 11.890625 -6.640625 L 1.875 -6.640625 Z M 1.875 -11.390625 "/></g></g></g><g fill="#ffffff" fill-opacity="1"><g transform="translate(149.866583, 258.458217)"><g><path d="M 16.5625 -25.6875 L 16.5625 -20.546875 L 7.71875 -20.546875 L 7.71875 -15.453125 L 16.1875 -15.453125 L 16.1875 -10.3125 L 7.71875 -10.3125 L 7.71875 -5.140625 L 16.5625 -5.140625 L 16.5625 0 L 1.875 0 L 1.875 -25.6875 Z M 16.5625 -25.6875 "/></g></g></g><g fill="#ffffff" fill-opacity="1"><g transform="translate(167.930573, 258.458217)"><g><path d="M 7.71875 -15.9375 L 7.71875 0 L 1.875 0 L 1.875 -25.6875 L 7.71875 -25.6875 L 17.9375 -9.75 L 18 -9.75 L 18 -25.6875 L 23.859375 -25.6875 L 23.859375 0 L 18 0 L 7.78125 -15.9375 Z M 7.71875 -15.9375 "/></g></g></g><g fill="#ffffff" fill-opacity="1"><g transform="translate(193.656181, 258.458217)"><g><path d="M 25.09375 -14.390625 L 25.09375 -8.8125 C 24.4375 -5.757812 22.984375 -3.445312 20.734375 -1.875 C 18.492188 -0.3125 15.992188 0.46875 13.234375 0.46875 C 9.765625 0.46875 6.8125 -0.828125 4.375 -3.421875 C 1.9375 -6.015625 0.71875 -9.148438 0.71875 -12.828125 C 0.71875 -16.566406 1.910156 -19.722656 4.296875 -22.296875 C 6.679688 -24.867188 9.660156 -26.15625 13.234375 -26.15625 C 17.410156 -26.15625 20.710938 -24.691406 23.140625 -21.765625 L 19.3125 -17.5625 C 17.9375 -19.757812 16.023438 -20.859375 13.578125 -20.859375 C 11.773438 -20.859375 10.234375 -20.070312 8.953125 -18.5 C 7.671875 -16.9375 7.03125 -15.046875 7.03125 -12.828125 C 7.03125 -10.648438 7.671875 -8.785156 8.953125 -7.234375 C 10.234375 -5.691406 11.773438 -4.921875 13.578125 -4.921875 C 15.066406 -4.921875 16.367188 -5.367188 17.484375 -6.265625 C 18.597656 -7.171875 19.15625 -8.375 19.15625 -9.875 L 13.234375 -9.875 L 13.234375 -14.390625 Z M 25.09375 -14.390625 "/></g></g></g><g fill="#ffffff" fill-opacity="1"><g transform="translate(219.475217, 258.458217)"><g><path d="M 7.71875 -25.6875 L 7.71875 0 L 1.875 0 L 1.875 -25.6875 Z M 7.71875 -25.6875 "/></g></g></g><g fill="#ffffff" fill-opacity="1"><g transform="translate(229.067818, 258.458217)"><g><path d="M 7.71875 -15.9375 L 7.71875 0 L 1.875 0 L 1.875 -25.6875 L 7.71875 -25.6875 L 17.9375 -9.75 L 18 -9.75 L 18 -25.6875 L 23.859375 -25.6875 L 23.859375 0 L 18 0 L 7.78125 -15.9375 Z M 7.71875 -15.9375 "/></g></g></g><g fill="#ffffff" fill-opacity="1"><g transform="translate(254.793426, 258.458217)"><g><path d="M 16.5625 -25.6875 L 16.5625 -20.546875 L 7.71875 -20.546875 L 7.71875 -15.453125 L 16.1875 -15.453125 L 16.1875 -10.3125 L 7.71875 -10.3125 L 7.71875 -5.140625 L 16.5625 -5.140625 L 16.5625 0 L 1.875 0 L 1.875 -25.6875 Z M 16.5625 -25.6875 "/></g></g></g><g fill="#ffffff" fill-opacity="1"><g transform="translate(272.857416, 258.458217)"><g><path d="M 16.5625 -25.6875 L 16.5625 -20.546875 L 7.71875 -20.546875 L 7.71875 -15.453125 L 16.1875 -15.453125 L 16.1875 -10.3125 L 7.71875 -10.3125 L 7.71875 -5.140625 L 16.5625 -5.140625 L 16.5625 0 L 1.875 0 L 1.875 -25.6875 Z M 16.5625 -25.6875 "/></g></g></g><g fill="#ffffff" fill-opacity="1"><g transform="translate(290.921406, 258.458217)"><g><path d="M 1.875 -25.6875 L 11.0625 -25.6875 C 13.53125 -25.6875 15.539062 -25.023438 17.09375 -23.703125 C 18.65625 -22.390625 19.4375 -20.507812 19.4375 -18.0625 C 19.4375 -16.175781 18.960938 -14.59375 18.015625 -13.3125 C 17.066406 -12.03125 15.785156 -11.132812 14.171875 -10.625 L 23.015625 0 L 15.5625 0 L 7.71875 -10.15625 L 7.71875 0 L 1.875 0 Z M 7.71875 -14.296875 L 8.40625 -14.296875 C 8.945312 -14.296875 9.40625 -14.304688 9.78125 -14.328125 C 10.15625 -14.347656 10.578125 -14.421875 11.046875 -14.546875 C 11.523438 -14.671875 11.910156 -14.847656 12.203125 -15.078125 C 12.492188 -15.304688 12.742188 -15.632812 12.953125 -16.0625 C 13.160156 -16.5 13.265625 -17.03125 13.265625 -17.65625 C 13.265625 -18.28125 13.160156 -18.8125 12.953125 -19.25 C 12.742188 -19.6875 12.492188 -20.015625 12.203125 -20.234375 C 11.910156 -20.460938 11.523438 -20.640625 11.046875 -20.765625 C 10.578125 -20.890625 10.15625 -20.960938 9.78125 -20.984375 C 9.40625 -21.003906 8.945312 -21.015625 8.40625 -21.015625 L 7.71875 -21.015625 Z M 7.71875 -14.296875 "/></g></g></g><g fill="#ffffff" fill-opacity="1"><g transform="translate(313.221096, 258.458217)"><g><path d="M 7.71875 -25.6875 L 7.71875 0 L 1.875 0 L 1.875 -25.6875 Z M 7.71875 -25.6875 "/></g></g></g><g fill="#ffffff" fill-opacity="1"><g transform="translate(322.813685, 258.458217)"><g><path d="M 7.71875 -15.9375 L 7.71875 0 L 1.875 0 L 1.875 -25.6875 L 7.71875 -25.6875 L 17.9375 -9.75 L 18 -9.75 L 18 -25.6875 L 23.859375 -25.6875 L 23.859375 0 L 18 0 L 7.78125 -15.9375 Z M 7.71875 -15.9375 "/></g></g></g><g fill="#ffffff" fill-opacity="1"><g transform="translate(348.539293, 258.458217)"><g><path d="M 25.09375 -14.390625 L 25.09375 -8.8125 C 24.4375 -5.757812 22.984375 -3.445312 20.734375 -1.875 C 18.492188 -0.3125 15.992188 0.46875 13.234375 0.46875 C 9.765625 0.46875 6.8125 -0.828125 4.375 -3.421875 C 1.9375 -6.015625 0.71875 -9.148438 0.71875 -12.828125 C 0.71875 -16.566406 1.910156 -19.722656 4.296875 -22.296875 C 6.679688 -24.867188 9.660156 -26.15625 13.234375 -26.15625 C 17.410156 -26.15625 20.710938 -24.691406 23.140625 -21.765625 L 19.3125 -17.5625 C 17.9375 -19.757812 16.023438 -20.859375 13.578125 -20.859375 C 11.773438 -20.859375 10.234375 -20.070312 8.953125 -18.5 C 7.671875 -16.9375 7.03125 -15.046875 7.03125 -12.828125 C 7.03125 -10.648438 7.671875 -8.785156 8.953125 -7.234375 C 10.234375 -5.691406 11.773438 -4.921875 13.578125 -4.921875 C 15.066406 -4.921875 16.367188 -5.367188 17.484375 -6.265625 C 18.597656 -7.171875 19.15625 -8.375 19.15625 -9.875 L 13.234375 -9.875 L 13.234375 -14.390625 Z M 25.09375 -14.390625 "/></g></g></g></svg>